<?xml version="1.0" standalone="no"?>
<!DOCTYPE svg PUBLIC "-//W3C//DTD SVG 20010904//EN"
 "http://www.w3.org/TR/2001/REC-SVG-20010904/DTD/svg10.dtd">
<svg version="1.0" xmlns="http://www.w3.org/2000/svg"
 width="539.000000pt" height="562.000000pt" viewBox="0 0 539.000000 562.000000"
 preserveAspectRatio="xMidYMid meet">

<g transform="translate(0.000000,562.000000) scale(0.100000,-0.100000)"
fill="#000000" stroke="none">
<path d="M0 5265 c1 -195 5 -355 10 -355 5 0 10 8 13 18 2 10 8 0 16 -27 9
-33 15 -41 22 -30 5 8 9 11 10 7 1 -5 3 -12 4 -18 1 -5 3 -13 4 -17 0 -5 17
-26 36 -47 19 -22 35 -43 35 -48 0 -16 -38 -7 -64 15 -14 12 -40 31 -56 40
l-30 18 0 -94 c0 -72 4 -98 15 -107 8 -7 15 -26 15 -42 0 -24 -3 -29 -17 -24
-12 4 -9 -1 6 -12 24 -20 22 -42 -5 -42 -22 0 -21 -228 2 -237 9 -3 20 0 24 8
7 11 13 9 32 -8 16 -15 40 -23 79 -26 31 -2 61 -7 67 -11 7 -4 10 -25 7 -49
-3 -32 1 -46 16 -60 17 -16 18 -27 13 -90 -8 -82 -14 -100 -14 -39 0 40 0 41
-42 46 -24 3 -56 7 -73 8 -27 3 -30 7 -33 39 -3 30 1 37 19 42 26 7 21 24 -12
50 -18 13 -34 16 -52 12 -32 -8 -37 -41 -7 -50 15 -5 20 -15 20 -45 0 -38 0
-39 -30 -30 l-30 9 0 -204 1 -204 32 -7 c18 -4 41 -8 52 -10 11 -1 22 -3 25
-4 3 -1 9 -2 13 -1 4 1 15 -5 23 -14 9 -8 21 -15 28 -15 7 0 23 -9 36 -20 19
-16 20 -21 7 -26 -8 -3 -24 -1 -34 5 -11 5 -43 12 -71 16 -44 5 -52 3 -52 -11
0 -11 5 -14 16 -10 8 3 22 -1 31 -9 13 -14 12 -17 -9 -34 -26 -21 -38 -19 -38
9 0 11 -10 20 -27 25 -26 6 -27 7 -8 17 11 6 22 12 24 14 7 6 -21 34 -35 34
-12 0 -14 -47 -13 -279 l1 -279 52 -6 c28 -3 77 -8 108 -12 38 -4 69 -2 88 6
32 13 32 30 -1 30 -10 0 -19 7 -19 15 0 10 10 15 29 15 23 0 30 5 33 25 3 14
2 25 -2 25 -4 0 -10 7 -14 15 -3 10 3 17 20 21 36 9 48 -6 36 -49 -9 -33 -8
-36 14 -41 14 -4 32 -2 42 3 14 9 11 10 -15 11 -38 0 -41 12 -13 47 21 27 26
24 10 -7 -9 -16 -3 -19 63 -26 39 -5 81 -7 91 -6 35 4 65 -26 81 -83 16 -55
17 -55 56 -55 22 0 38 -4 35 -8 -3 -5 -29 -5 -58 -2 -29 4 -64 3 -77 -2 -13
-5 -27 -5 -30 0 -8 11 -61 14 -61 3 0 -5 6 -11 13 -14 22 -7 -13 -37 -44 -37
-15 0 -31 -4 -34 -10 -3 -6 -21 -10 -38 -10 -19 0 -27 -3 -20 -8 15 -9 54 -8
70 1 14 9 21 -12 25 -72 2 -36 -1 -45 -17 -51 -11 -4 -15 -9 -8 -13 6 -4 18
-4 26 -1 8 3 18 0 22 -6 4 -7 -2 -14 -14 -17 -16 -4 -21 -13 -21 -39 0 -32 -1
-33 -32 -27 -26 4 -31 3 -21 -7 8 -9 9 -21 2 -39 -16 -45 -32 -70 -40 -65 -4
2 -10 0 -14 -6 -14 -23 -21 -7 -22 52 -1 33 -7 66 -13 72 -5 5 -10 27 -10 48
0 38 0 38 41 38 32 0 42 -4 46 -20 6 -22 23 -28 23 -7 -1 33 -40 57 -72 43
-36 -16 -68 25 -59 77 1 5 -8 11 -19 14 -21 6 -27 27 -10 38 5 3 20 -1 33 -10
14 -9 32 -13 42 -9 17 7 17 8 0 20 -9 7 -20 27 -24 45 -5 25 -14 35 -36 41
-44 13 -141 17 -157 7 -7 -5 -8 -9 -3 -9 6 0 4 -4 -4 -9 -14 -9 -57 11 -73 34
-4 5 -8 -178 -8 -407 l1 -418 24 0 c25 0 33 14 16 24 -5 3 -11 17 -14 32 -4
23 -2 25 19 20 20 -5 24 -3 24 17 0 13 -11 37 -25 53 -31 36 -31 42 -3 53 35
13 54 -10 51 -61 -1 -24 -4 -79 -6 -122 -3 -68 -7 -82 -27 -98 -12 -10 -27
-18 -34 -17 -7 0 -6 2 2 6 6 2 9 10 5 16 -4 7 0 8 11 4 15 -6 17 -3 11 23 -5
24 -3 30 11 30 9 0 15 2 13 5 -3 2 -22 2 -42 -2 -30 -5 -37 -10 -37 -28 0 -13
6 -26 13 -28 9 -4 9 -6 0 -6 -10 -1 -13 -129 -13 -607 l0 -606 35 31 c20 17
40 31 46 31 6 0 9 -25 7 -62 l-3 -63 -40 -5 c-35 -4 -40 -9 -43 -32 -3 -27 -2
-28 42 -28 46 0 46 0 46 -35 0 -24 5 -35 15 -35 10 0 15 10 15 34 0 37 -5 34
103 54 56 10 62 15 43 31 -12 10 -63 18 -140 21 -4 0 -5 7 -2 16 3 8 2 13 -3
10 -5 -3 -12 21 -16 54 -7 57 -6 60 22 84 16 15 46 28 73 31 25 4 52 9 60 12
8 3 26 5 40 4 16 -1 30 6 38 19 13 21 12 21 -18 5 -40 -21 -39 -5 2 18 32 18
33 18 50 -3 10 -12 23 -40 29 -62 6 -22 15 -48 20 -57 4 -9 13 -36 19 -60 7
-27 15 -40 21 -34 9 9 -6 69 -22 88 -5 5 -9 15 -9 21 0 7 -5 25 -12 41 -25 62
-47 129 -48 144 0 10 42 48 100 90 56 41 230 171 388 289 158 119 299 223 313
232 26 17 212 21 717 19 l112 -1 0 -25 c0 -14 7 -28 15 -31 8 -4 13 -10 10
-15 -9 -13 33 -31 63 -26 25 4 24 4 -5 6 -22 0 -33 6 -33 16 0 18 -3 17 35 6
45 -13 75 2 75 38 0 16 6 31 15 34 12 5 14 -4 12 -48 -1 -30 -5 -55 -9 -55
-15 0 -8 -39 10 -49 9 -6 12 -11 7 -11 -6 0 -20 7 -32 15 -21 15 -23 14 -29
-12 -5 -17 -3 -28 4 -31 7 -2 12 -8 12 -13 0 -12 -81 -85 -92 -82 -4 2 -8 -8
-8 -22 0 -14 2 -25 5 -25 2 0 27 20 55 45 77 68 77 67 59 -76 -7 -53 -18 -95
-28 -106 -102 -113 -129 -150 -121 -163 5 -8 11 -12 12 -10 42 56 119 143 122
139 10 -14 -64 -582 -78 -596 -3 -3 1 -14 9 -23 13 -14 14 -31 6 -106 -5 -49
-12 -99 -16 -111 -5 -16 -2 -24 14 -32 32 -17 71 -4 71 24 0 13 -5 27 -11 31
-7 4 -9 20 -5 43 3 20 13 119 22 221 24 289 28 323 42 328 15 5 16 -31 2 -58
-14 -26 -2 -52 24 -48 18 3 21 10 22 52 1 29 7 52 15 57 8 5 20 12 27 17 10 7
16 49 22 140 4 72 11 135 15 141 3 6 18 11 32 11 25 0 26 -1 20 -57 -22 -212
-29 -244 -58 -274 -16 -17 -27 -34 -24 -39 3 -5 1 -11 -5 -15 -7 -4 -6 -14 2
-28 7 -12 13 -35 14 -52 1 -16 5 -38 9 -47 5 -13 0 -19 -22 -24 -49 -12 -57
-24 -32 -51 15 -15 34 -23 56 -23 l34 0 -3 -100 c-2 -55 -6 -100 -10 -100 -13
0 -9 -45 5 -65 10 -13 21 -16 38 -12 20 5 25 13 27 42 2 20 -2 35 -8 35 -6 0
-8 5 -4 12 5 7 7 27 5 45 -1 17 5 48 14 68 15 29 15 38 4 51 -12 14 -10 19 14
38 27 21 27 23 27 139 0 76 -4 124 -12 137 -10 16 -10 24 0 40 15 25 18 705 2
715 -5 3 -10 14 -10 24 0 13 8 17 35 17 28 -1 35 -5 35 -21 0 -12 -4 -25 -9
-30 -5 -6 -11 -238 -15 -518 -5 -447 -4 -507 9 -507 12 0 15 -15 15 -72 -1
-81 -15 -76 -29 10 l-8 47 -8 -42 c-4 -24 -11 -40 -16 -38 -12 8 -23 -66 -12
-83 8 -14 88 -39 123 -39 8 0 27 -4 41 -7 39 -11 56 15 40 59 -7 21 -10 63 -6
117 3 46 6 138 6 206 1 67 5 125 10 128 6 3 17 0 25 -7 14 -12 15 -34 3 -78
-2 -9 4 -17 16 -19 28 -6 32 -16 40 -94 6 -56 10 -68 25 -68 10 0 20 -10 23
-23 6 -21 11 -166 7 -177 -11 -29 -6 -60 10 -65 11 -3 20 -17 22 -33 3 -24 7
-27 38 -27 40 0 37 -21 24 183 l-7 112 25 0 c25 0 58 27 58 48 0 6 -18 16 -41
22 -34 9 -38 14 -29 26 7 7 10 24 7 36 -3 11 0 35 7 53 8 19 11 47 7 71 -5 33
-10 39 -34 42 -26 3 -27 5 -27 70 0 37 -3 99 -6 137 l-6 70 21 -25 c12 -14 49
-71 83 -127 35 -57 69 -103 76 -103 21 0 14 16 -45 107 -32 48 -62 96 -68 105
-5 9 -22 36 -36 60 -26 43 -45 118 -30 118 4 0 16 -16 27 -35 20 -37 44 -54
44 -30 0 8 -18 43 -41 77 -37 58 -40 67 -34 110 4 25 2 55 -3 65 -5 10 -12 42
-14 71 l-5 52 73 0 74 0 0 33 c1 30 19 67 34 67 11 0 6 -28 -6 -33 -10 -4 -10
-6 0 -6 9 -1 9 -7 -3 -24 -16 -26 -12 -37 16 -37 9 0 19 -7 23 -15 3 -8 16
-15 28 -15 42 0 67 -12 71 -34 2 -11 5 -2 6 22 l1 42 73 0 c41 0 162 -3 270
-7 l197 -6 0 -35 c0 -35 13 -124 30 -215 8 -37 6 -56 -6 -87 -11 -27 -13 -44
-6 -53 13 -16 8 -72 -8 -92 -7 -8 -28 -15 -49 -15 -42 0 -61 -14 -61 -46 0
-16 11 -25 44 -38 42 -16 242 -39 259 -29 4 2 7 31 7 64 0 53 2 59 21 59 12 0
23 8 26 19 5 18 12 19 89 14 l84 -6 -2 69 c-2 78 20 194 37 194 6 0 29 -15 51
-33 60 -51 282 -218 346 -260 58 -39 80 -67 52 -67 -9 0 -14 -6 -11 -12 2 -7
10 -12 16 -11 6 2 11 -10 11 -27 0 -17 4 -30 10 -30 5 0 6 -8 3 -17 -6 -15 -4
-16 9 -5 8 7 23 10 32 6 9 -3 39 -9 68 -13 40 -5 55 -12 71 -33 11 -15 18 -30
16 -33 -3 -2 -49 -7 -103 -9 -54 -3 -101 -7 -103 -10 -3 -3 -3 -12 0 -20 17
-44 178 -73 263 -48 34 10 49 11 52 3 2 -6 15 -11 28 -11 23 0 119 -65 242
-163 29 -23 83 -66 120 -94 l67 -53 3 423 c2 297 -1 428 -9 443 -8 16 -8 53 0
142 16 178 15 372 -3 372 -8 0 -17 -11 -20 -25 -4 -14 -11 -25 -16 -25 -14 0
-13 13 2 28 9 9 9 12 0 12 -7 0 -12 6 -12 14 0 8 -8 17 -17 19 -10 3 3 5 30 6
61 1 61 18 0 25 -27 4 -77 14 -113 23 -36 9 -77 18 -92 21 l-26 4 -6 -89 c-4
-48 -11 -107 -16 -130 -6 -23 -10 -62 -10 -86 0 -74 -21 -157 -39 -157 -18 1
-48 21 -49 33 -1 14 -12 21 -12 9 0 -17 -35 -15 -49 2 -8 9 -10 35 -5 77 6 64
6 64 -25 82 -42 24 -42 51 -1 42 38 -8 38 -9 44 136 3 64 8 123 12 132 5 14
20 17 76 17 58 0 69 -3 64 -15 -7 -19 4 -19 30 -1 24 17 216 21 246 5 17 -9
18 -3 18 105 l0 114 -77 7 c-123 12 -121 10 -111 97 12 119 9 112 64 118 46 5
49 7 52 35 1 17 5 45 8 63 5 31 7 33 35 27 l29 -7 0 96 0 96 -29 -2 c-40 -4
-41 15 -2 26 27 8 31 14 31 42 0 32 -1 33 -26 24 -34 -13 -46 -5 -40 28 2 15
5 30 5 35 1 4 13 7 27 7 14 0 23 4 19 10 -3 6 -14 10 -23 10 -15 0 -17 11 -14
87 3 78 1 91 -17 110 -30 32 -18 53 30 53 l40 0 -2 110 c-1 61 -2 110 -4 110
-1 0 -15 -7 -31 -15 -24 -12 -26 -15 -10 -21 15 -6 14 -9 -11 -19 -15 -7 -51
-15 -78 -19 -28 -4 -76 -16 -109 -27 -32 -10 -63 -16 -68 -13 -8 5 -61 -6
-198 -42 -69 -19 -134 -37 -138 -39 -1 -1 4 -15 13 -31 8 -16 15 -35 15 -41 0
-19 18 -15 23 5 3 12 5 10 6 -7 1 -16 6 -21 15 -18 20 8 25 -12 16 -63 -4 -24
-6 -50 -3 -57 3 -8 -3 -13 -17 -13 -17 0 -20 4 -15 21 7 20 4 21 -33 14 -24
-4 -42 -2 -46 4 -4 6 -12 8 -19 5 -15 -5 -21 -100 -7 -109 6 -3 10 -1 10 5 0
6 15 10 34 8 19 -1 42 4 51 12 14 12 18 12 26 -1 15 -24 10 -37 -21 -48 -16
-5 -30 -7 -30 -3 0 4 -19 6 -42 5 -24 0 -48 3 -55 9 -7 5 -17 7 -23 3 -17 -11
-33 5 -20 20 6 8 10 27 8 42 -2 23 1 29 20 31 19 3 22 9 22 49 0 36 3 44 15
39 9 -3 15 0 15 9 0 8 -6 15 -12 15 -7 0 -22 14 -33 30 -13 19 -29 30 -44 30
-17 0 -22 4 -17 16 3 9 6 17 6 20 0 2 7 1 15 -2 8 -4 21 -2 28 4 6 5 26 12 42
15 17 2 66 14 110 26 44 12 104 28 134 34 70 15 80 37 17 37 -24 0 -47 3 -49
8 -3 4 16 7 41 8 26 0 54 2 62 5 10 3 14 -2 12 -13 -2 -13 4 -18 20 -18 13 0
19 4 13 8 -16 11 -15 41 1 35 8 -3 14 -1 14 5 0 5 8 9 18 8 14 -1 17 9 19 71
2 40 -2 75 -7 78 -13 8 -13 35 -1 35 5 0 12 -8 14 -17 3 -10 5 -2 4 17 0 19 5
45 11 56 9 17 9 24 -2 33 -11 9 -15 9 -19 -1 -5 -13 -11 17 -8 36 1 6 3 27 3
49 0 29 6 42 24 54 13 8 24 20 24 25 0 5 14 21 30 35 34 28 34 41 1 23 -19
-10 -21 -8 -21 24 0 19 4 37 9 40 5 3 7 25 4 48 l-6 41 22 -22 c13 -13 20 -29
17 -36 -4 -10 6 -16 32 -20 20 -3 50 -10 66 -15 22 -7 32 -6 38 3 14 22 8 27
-34 28 -70 3 -76 4 -83 11 -9 9 34 70 45 63 4 -3 10 2 14 10 9 25 36 18 36 -9
0 -14 -4 -28 -10 -31 -6 -3 -10 -11 -10 -16 0 -5 11 -2 25 7 14 9 25 25 25 35
0 11 11 37 25 59 14 22 25 54 25 71 0 31 -1 31 -36 24 -31 -5 -36 -4 -31 9 8
20 6 20 -29 1 -39 -20 -98 -20 -90 0 4 10 -1 15 -14 15 -24 0 -26 23 -4 44 8
9 11 16 5 16 -13 0 -14 29 -2 48 6 11 17 11 45 3 25 -6 47 -7 63 0 16 6 38 6
59 0 l34 -9 0 139 0 140 -22 -12 c-13 -6 -37 -22 -55 -35 -17 -13 -35 -24 -40
-24 -17 -1 -58 -43 -45 -47 6 -3 12 -9 12 -14 0 -13 -57 -11 -65 2 -11 16 20
44 121 109 l94 61 0 400 0 399 -43 0 c-24 0 -49 -6 -56 -12 -11 -11 -12 -10
-6 0 14 25 -33 -6 -51 -33 -9 -14 -23 -25 -32 -25 -12 0 -13 3 -4 12 7 7 12
22 12 35 0 23 -2 23 -115 23 l-115 0 0 -33 c0 -38 -51 -117 -74 -117 -8 0 -17
12 -19 28 -2 17 -5 9 -6 -20 -1 -48 -17 -71 -31 -48 -11 18 -59 -37 -60 -67 0
-24 -11 -40 -69 -99 -42 -44 -36 -53 9 -14 38 33 50 31 51 -8 1 -26 1 -26 12
6 8 25 15 32 31 30 18 -3 22 4 27 47 l6 50 3 -50 3 -50 8 64 c7 57 13 69 51
108 23 24 45 43 48 43 3 0 3 -35 0 -78 -5 -75 -7 -81 -46 -125 -23 -26 -46
-47 -51 -47 -5 0 -27 -19 -48 -41 -29 -30 -34 -38 -16 -29 19 10 22 10 15 -2
-19 -30 -369 -378 -372 -370 -2 6 -12 7 -24 4 -14 -3 -26 1 -34 13 -13 17 -14
16 -14 -17 0 -30 -9 -43 -60 -91 -33 -31 -60 -61 -60 -67 0 -6 -7 -13 -16 -17
-12 -5 -13 -7 -2 -14 14 -9 4 -21 -132 -161 -41 -43 -78 -78 -81 -78 -4 0 -33
-26 -64 -57 -31 -32 -54 -53 -51 -46 4 6 1 15 -5 19 -6 4 -36 -20 -69 -56
l-59 -62 6 -71 c6 -83 13 -101 13 -34 0 47 7 77 19 77 8 0 5 -129 -3 -138 -3
-3 -6 -15 -7 -26 -1 -18 -2 -18 -9 4 -8 24 -8 24 -9 3 -1 -22 -5 -23 -77 -23
-66 0 -75 2 -70 16 6 15 4 15 -18 0 -39 -25 -92 -21 -112 8 -11 18 -13 30 -6
43 6 10 14 17 17 16 4 -2 7 42 7 97 -1 55 3 102 9 105 5 4 9 18 9 33 0 15 16
50 34 77 19 28 44 66 55 85 11 19 58 84 104 144 47 59 93 125 104 145 24 48
63 101 74 101 5 0 9 -34 9 -75 0 -41 4 -75 8 -75 4 0 16 14 25 30 10 17 22 30
27 30 4 0 6 -36 3 -80 -4 -54 -2 -80 5 -80 24 0 27 13 39 190 8 112 9 117 43
160 59 75 64 80 82 80 11 0 18 8 18 20 0 19 80 145 120 187 27 29 78 20 83
-16 2 -14 2 4 -1 41 -4 61 -2 69 24 105 16 21 31 40 34 43 3 3 27 33 54 68 29
38 55 62 67 62 15 0 19 7 19 38 0 21 5 43 12 50 9 9 -25 12 -154 12 l-167 0
-45 -43 c-25 -24 -50 -56 -55 -70 -6 -15 -17 -27 -26 -27 -39 0 -95 -46 -95
-78 0 -24 -34 -90 -54 -104 -7 -5 -4 -8 7 -8 21 0 22 -13 2 -30 -9 -7 -15 -29
-15 -51 0 -31 -4 -39 -19 -39 -15 0 -21 -12 -30 -60 -7 -33 -16 -60 -20 -60
-5 0 -19 -19 -31 -42 -12 -23 -43 -63 -70 -88 -57 -54 -143 -130 -161 -140 -6
-5 -9 -15 -6 -25 4 -9 -1 -24 -12 -36 -21 -23 -38 -132 -21 -137 24 -8 6 -42
-63 -113 -83 -89 -119 -111 -202 -127 -71 -14 -221 -19 -251 -9 -26 9 -34 -12
-34 -88 0 -44 3 -51 25 -62 14 -6 27 -7 31 -2 10 16 43 -10 47 -38 l4 -28 2
29 1 29 110 -7 c60 -3 116 -9 125 -12 17 -7 19 -51 9 -141 l-7 -53 -118 0
-119 0 -2 78 -2 77 -5 -75 -6 -75 -71 -3 -71 -3 -6 -62 c-6 -56 -24 -182 -42
-294 l-8 -43 55 0 c45 0 59 4 78 25 13 14 34 25 47 25 22 0 23 3 23 85 l0 85
94 0 c91 0 94 -1 100 -24 3 -13 3 -52 -1 -86 -6 -61 -6 -62 -34 -56 -16 3 -31
1 -34 -4 -7 -12 57 -24 84 -15 22 7 71 -29 57 -42 -4 -5 -13 0 -20 9 -10 14
-35 17 -149 19 -129 3 -138 2 -160 -19 -19 -18 -35 -22 -85 -22 -59 0 -62 -1
-62 -25 0 -22 4 -25 38 -25 79 0 82 -4 82 -86 l0 -74 -27 0 c-16 0 -58 3 -95
7 -60 5 -68 8 -68 27 0 11 -11 29 -25 41 -22 17 -29 36 -42 115 -9 52 -17 111
-17 130 1 31 19 195 44 385 5 39 9 80 9 93 1 18 7 22 34 22 17 0 47 -4 65 -9
27 -8 34 -7 42 10 6 11 8 24 5 29 -5 9 -96 25 -111 20 -23 -7 -20 38 21 350 8
69 18 146 22 172 3 26 3 54 -1 64 -6 15 -9 15 -31 -6 l-25 -23 -11 33 -12 33
-82 -7 -82 -6 0 81 1 81 33 -5 c33 -6 44 5 20 20 -7 4 -17 31 -23 58 -8 44
-12 50 -36 53 -15 2 -44 12 -65 22 -26 12 -42 15 -50 8 -14 -12 -29 -4 -43 22
-8 16 -8 18 5 14 15 -6 17 2 18 86 0 73 -3 90 -18 90 -8 0 -15 5 -15 10 0 6 5
10 11 10 8 0 8 5 -1 15 -7 8 -9 22 -5 32 4 10 6 51 5 91 -1 67 0 72 19 72 12
0 21 4 21 9 0 5 3 16 6 25 5 14 -4 16 -65 16 l-71 0 0 -30 c0 -16 -4 -30 -10
-30 -5 0 -10 14 -10 30 0 28 -3 30 -37 30 -33 0 -35 -1 -19 -13 16 -12 18 -24
14 -85 -3 -47 -11 -78 -22 -90 -9 -10 -16 -23 -16 -28 0 -5 -7 -21 -14 -36
-23 -45 -10 -128 20 -128 17 0 17 8 -1 40 -20 34 -18 59 5 104 26 51 34 30 28
-69 -3 -41 -1 -78 4 -83 5 -5 4 -29 -2 -57 -7 -31 -7 -51 -1 -59 6 -7 8 -21 5
-32 -2 -10 0 -32 5 -49 5 -17 10 -22 10 -12 2 38 21 4 21 -36 -1 -35 -3 -39
-13 -26 -18 24 -39 -2 -35 -44 3 -27 7 -32 26 -29 15 1 22 -2 20 -10 -5 -15
-40 -26 -85 -27 -25 -1 -33 -5 -33 -20 0 -10 -11 -26 -25 -35 -24 -16 -35 -56
-15 -56 6 0 10 -15 10 -34 0 -26 -5 -35 -21 -39 -32 -9 -17 -32 21 -32 18 0
35 -6 37 -12 3 -8 -4 -13 -16 -13 -14 0 -21 -6 -21 -20 0 -14 7 -20 23 -20 29
0 40 -9 55 -43 16 -36 16 -37 -8 -37 -12 0 -34 -7 -50 -15 -27 -14 -30 -20
-30 -63 1 -26 7 -64 14 -85 14 -39 14 -40 -29 -62 -10 -6 -34 -30 -53 -55 -33
-42 -34 -48 -28 -103 3 -31 8 -68 12 -81 5 -23 4 -23 -60 -22 l-66 1 1 150 c2
98 -2 158 -9 172 -7 12 -12 36 -12 53 0 28 -2 31 -22 23 -33 -12 -245 2 -328
21 -14 3 -50 10 -80 16 -30 6 -76 21 -102 34 -35 17 -48 19 -48 9 0 -23 43
-57 100 -79 46 -17 56 -25 58 -47 l3 -27 128 0 c146 0 141 4 141 -92 0 -26 4
-50 10 -53 14 -9 50 13 50 30 0 8 6 15 14 15 13 0 26 -41 26 -86 0 -33 -18
-30 -23 4 -2 15 -5 -15 -6 -66 l-1 -94 -72 6 c-40 2 -100 5 -133 6 -33 0 -80
3 -103 6 -37 5 -43 9 -39 24 4 15 -2 20 -27 25 -17 4 -39 9 -48 11 -26 8 -22
-20 5 -39 21 -15 20 -16 -29 -16 -44 -1 -54 3 -84 34 -35 36 -36 54 -3 37 11
-6 25 -7 32 -3 10 7 9 15 -4 41 -10 20 -15 44 -11 60 4 20 1 30 -11 34 -22 9
-28 0 -13 -19 15 -18 7 -30 -15 -21 -11 4 -14 13 -9 30 5 21 2 25 -22 28 -26
3 -27 4 -13 18 14 13 14 18 -4 50 -11 19 -31 46 -44 61 -21 23 -29 25 -97 23
-73 -3 -75 -2 -114 34 -49 46 -182 202 -182 215 0 5 7 7 15 3 11 -4 15 1 15
17 0 13 -3 17 -8 11 -4 -8 -30 14 -69 59 -47 54 -63 79 -63 102 0 16 -3 40 -6
52 -5 19 -9 21 -26 12 -16 -8 -23 -8 -29 2 -9 15 -11 13 -25 -19 -9 -22 -13
-20 -85 60 -108 120 -159 183 -159 196 0 7 -4 11 -9 10 -13 -4 -104 110 -96
122 3 5 1 10 -4 10 -6 0 -11 7 -11 16 0 8 -4 13 -8 10 -5 -3 -17 9 -27 27 -10
17 -29 41 -42 53 -13 12 -23 31 -23 43 0 12 -4 19 -10 16 -5 -3 -21 5 -35 19
-24 24 -25 29 -19 96 l7 70 -97 0 -96 0 0 -355z m2456 249 c-5 -13 -10 -14
-18 -6 -6 6 -8 18 -4 28 5 13 10 14 18 6 6 -6 8 -18 4 -28z m2748 11 c-4 -8
-8 -15 -10 -15 -2 0 -4 7 -4 15 0 8 4 15 10 15 5 0 7 -7 4 -15z m103 -17 c-3
-8 -6 -5 -6 6 -1 11 2 17 5 13 3 -3 4 -12 1 -19z m-2887 -22 c0 -2 -7 -7 -16
-10 -8 -3 -12 -2 -9 4 6 10 25 14 25 6z m2950 -102 c17 -19 1 -36 -49 -53 -54
-18 -70 10 -29 49 26 24 61 26 78 4z m-2960 -118 c0 -11 -19 -15 -25 -6 -3 5
1 10 9 10 9 0 16 -2 16 -4z m2766 -58 c9 -15 -14 -36 -46 -40 -37 -6 -55 5
-47 26 12 30 77 40 93 14z m-5048 -27 c3 -8 -1 -12 -9 -9 -7 2 -15 10 -17 17
-3 8 1 12 9 9 7 -2 15 -10 17 -17z m92 -63 c0 -13 3 -53 6 -90 6 -64 5 -68
-14 -68 -30 0 -53 11 -46 21 3 5 10 7 15 4 5 -4 9 1 9 9 0 9 -7 16 -15 16 -13
0 -14 4 -4 21 9 18 8 24 -4 30 -16 9 -12 59 7 71 23 16 46 8 46 -14z m40 -29
c0 -11 -4 -17 -10 -14 -5 3 -10 13 -10 21 0 8 5 14 10 14 6 0 10 -9 10 -21z
m4560 13 c0 -11 -39 -52 -49 -52 -5 0 -7 -16 -5 -36 3 -44 -15 -33 -22 13 -3
22 2 38 18 57 22 24 58 36 58 18z m-2273 -44 c-3 -8 -6 -5 -6 6 -1 11 2 17 5
13 3 -3 4 -12 1 -19z m-2134 -3 c4 -8 2 -17 -3 -20 -6 -4 -10 3 -10 14 0 25 6
27 13 6z m4592 5 c12 -19 -16 -40 -51 -40 -34 0 -39 6 -28 34 7 18 69 22 79 6z
m309 -28 c6 -9 -53 -37 -61 -28 -3 3 0 12 7 21 13 16 46 20 54 7z m-4940 -37
c3 -8 1 -15 -4 -15 -6 0 -10 7 -10 15 0 8 2 15 4 15 2 0 6 -7 10 -15z m50 -1
c3 -8 2 -12 -4 -9 -6 3 -10 10 -10 16 0 14 7 11 14 -7z m-359 -20 c9 -14 14
-28 12 -31 -10 -9 -47 22 -47 39 0 26 15 22 35 -8z m4769 -40 c16 -6 22 -33 9
-35 -66 -13 -97 4 -50 27 12 7 23 12 24 13 1 0 8 -2 17 -5z m-4648 -38 c1 -7
4 -22 8 -32 6 -22 -7 -49 -21 -41 -4 3 -7 26 -5 52 4 42 13 54 18 21z m4969 4
c14 -6 16 -9 5 -10 -8 -1 -28 -4 -44 -6 -26 -5 -28 -3 -16 10 14 18 25 19 55
6z m-4902 -33 c-3 -4 -11 -3 -19 4 -7 6 -11 15 -8 20 3 5 11 3 18 -4 8 -6 12
-16 9 -20z m2317 15 c0 -5 -29 -9 -65 -10 -38 -1 -65 2 -65 8 0 6 28 10 65 10
36 0 65 -4 65 -8z m-2180 -48 c0 -8 -4 -12 -10 -9 -5 3 -10 13 -10 21 0 8 5
12 10 9 6 -3 10 -13 10 -21z m-246 -10 c4 -12 2 -12 -14 -4 -11 6 -20 15 -20
20 0 14 28 1 34 -16z m184 -45 c25 -21 50 -35 58 -32 9 3 14 -2 14 -16 0 -28
20 -27 21 2 0 15 2 17 6 7 3 -8 9 -17 12 -20 14 -11 41 -60 41 -75 0 -8 4 -15
8 -15 10 0 36 -89 29 -96 -3 -4 3 -15 13 -27 18 -19 18 -21 3 -32 -15 -11 -12
-16 23 -46 21 -19 52 -48 69 -65 18 -19 43 -33 60 -35 33 -3 65 -25 65 -44 0
-6 18 -24 40 -41 22 -16 40 -32 40 -36 0 -5 5 -8 12 -8 7 0 24 -12 39 -26 32
-31 53 -24 46 15 -8 38 4 51 47 55 64 5 74 -13 77 -129 2 -70 7 -105 18 -118
8 -9 11 -20 7 -24 -4 -5 -12 0 -17 10 -13 23 -29 22 -29 -3 0 -11 -6 -19 -12
-17 -19 3 -22 -45 -5 -58 9 -6 15 -18 15 -26 -3 -57 3 -79 22 -79 15 0 20 7
20 26 0 35 16 22 24 -21 4 -19 12 -37 18 -41 16 -10 29 17 24 48 -3 15 -2 30
3 32 5 3 11 -19 13 -50 7 -87 28 -93 28 -8 0 63 -2 72 -22 83 -55 29 -72 41
-60 42 6 0 31 1 54 1 41 1 43 -1 50 -33 4 -19 8 -49 10 -67 1 -18 6 -36 10
-38 4 -3 8 -21 8 -40 0 -47 23 -40 30 9 4 29 8 35 19 28 11 -7 15 -31 15 -84
1 -48 -3 -73 -9 -69 -44 27 -101 68 -103 74 -2 4 -8 8 -13 8 -11 0 -72 42 -77
53 -2 4 -7 5 -12 2 -4 -3 -13 2 -20 10 -18 22 -38 8 -32 -23 5 -26 4 -27 -15
-9 -24 21 -32 124 -11 139 10 8 10 11 1 15 -8 3 -13 25 -13 59 0 47 2 54 20
54 11 0 20 4 20 10 0 5 -10 9 -22 9 -29 -1 -70 8 -79 18 -3 5 -12 25 -19 46
-6 20 -15 37 -18 37 -4 0 -33 23 -65 50 -32 28 -62 50 -65 50 -9 0 -7 -118 1
-127 13 -12 7 -25 -8 -19 -13 4 -15 -8 -15 -74 0 -58 -4 -80 -13 -80 -8 0 -13
17 -14 46 -3 61 -30 83 -98 82 -74 -1 -105 -15 -105 -47 0 -22 11 -32 68 -63
37 -20 78 -46 91 -57 14 -13 36 -20 57 -19 19 1 42 -6 52 -16 11 -9 25 -15 33
-13 8 2 10 2 6 -1 -11 -6 95 -80 126 -87 14 -4 28 -13 31 -21 3 -8 15 -14 26
-14 14 0 20 -7 20 -21 0 -12 5 -19 12 -17 12 4 58 -34 58 -47 0 -8 -43 5 -50
15 -10 14 -51 31 -60 25 -6 -3 -10 -13 -10 -21 0 -8 -9 -14 -21 -14 -11 0 -18
4 -15 9 3 5 -2 24 -12 42 -15 31 -17 32 -20 12 -2 -13 -10 -23 -18 -23 -10 0
-14 -12 -14 -40 0 -48 19 -54 21 -7 l1 32 7 -30 c4 -16 3 -35 -1 -42 -5 -6 -5
-14 2 -18 5 -3 10 -38 10 -76 l0 -70 -29 15 c-31 16 -42 48 -35 102 3 25 0 33
-16 37 -17 4 -20 14 -21 64 -1 32 -4 45 -6 30 -4 -25 -8 -28 -26 -21 -12 4
-39 7 -59 8 -22 1 -38 6 -38 13 0 6 -15 11 -34 11 -19 0 -41 4 -48 8 -13 8
-19 9 -75 12 -29 2 -33 6 -41 45 -10 51 -8 57 23 57 19 0 24 -6 27 -32 2 -25
8 -33 23 -33 28 0 31 33 6 56 -36 34 -23 41 25 14 26 -14 49 -24 52 -21 2 3
12 2 21 -3 9 -4 31 -2 50 4 l33 12 -44 36 c-25 21 -50 37 -56 37 -6 0 -38 16
-71 35 -32 19 -64 35 -69 35 -16 0 -42 36 -48 68 -5 26 -12 33 -38 37 -17 4
-36 6 -41 5 -24 -5 -33 1 -28 20 12 46 -6 84 -55 116 -26 16 -46 36 -44 44 2
7 -3 17 -10 21 -10 7 -10 11 0 21 9 9 12 9 12 -4 0 -9 8 -18 18 -22 22 -7 55
-28 64 -41 4 -5 8 1 8 16 0 14 -5 30 -12 37 -9 9 -9 12 -1 12 7 0 15 -4 18
-10 8 -13 55 -13 55 0 0 7 7 7 20 0 16 -9 22 -8 27 6 5 14 8 13 24 -7 10 -13
19 -34 19 -46 0 -14 6 -23 15 -23 8 0 15 -8 15 -17 0 -15 1 -15 13 2 15 20 37
13 37 -11 0 -8 5 -12 11 -9 7 5 5 13 -5 24 -8 9 -18 39 -21 66 -4 28 -9 53
-12 58 -2 4 0 7 6 7 5 0 12 -14 16 -30 4 -17 16 -35 27 -41 12 -6 18 -7 14 -1
-3 5 14 15 39 21 25 6 45 13 45 15 0 3 -108 89 -127 100 -9 5 -11 2 -7 -9 5
-11 2 -14 -11 -9 -10 4 -15 14 -12 25 3 11 2 19 -1 19 -12 0 -72 60 -72 72 0
6 12 8 30 5 35 -7 36 -4 11 42 -13 25 -19 30 -24 18 -14 -37 -87 31 -92 86 -1
10 -12 25 -25 34 -13 9 -31 24 -40 33 -9 9 -33 26 -53 39 -71 44 -89 83 -44
100 27 10 47 1 105 -50z m359 -8 c-4 -19 -2 -31 6 -34 8 -3 5 -7 -6 -12 -20
-8 -67 9 -67 25 0 5 14 10 30 10 23 0 30 4 30 20 0 11 3 20 6 20 4 0 4 -13 1
-29z m3743 -2 c-7 -11 -14 -19 -16 -16 -7 7 7 37 17 37 6 0 5 -9 -1 -21z
m-3571 -150 c6 -17 6 -31 1 -34 -18 -11 3 -34 33 -37 31 -3 32 -4 35 -58 3
-50 1 -56 -17 -56 -13 0 -21 9 -25 30 -7 36 -19 27 -22 -17 -4 -68 -17 -136
-24 -132 -4 2 -5 17 -2 32 5 25 4 27 -11 14 -22 -18 -21 -37 3 -58 36 -31 21
-35 -18 -5 -35 28 -37 33 -34 77 3 32 0 51 -9 57 -11 8 -11 11 -1 15 9 3 10 9
3 17 -16 20 -26 96 -12 96 7 0 19 7 27 15 10 10 11 15 4 15 -8 0 -11 13 -8 38
3 20 1 50 -3 66 l-9 30 40 -39 c21 -21 44 -51 49 -66z m-599 71 c0 -13 7 -20
18 -20 29 0 75 -54 67 -79 -8 -25 -63 -30 -70 -6 -16 51 -21 34 -25 -100 -3
-82 -1 -153 4 -156 4 -4 3 -9 -2 -13 -6 -3 -13 -2 -17 4 -3 5 -19 10 -35 10
-28 0 -28 1 -37 72 l-8 72 -43 9 c-32 6 -46 15 -57 37 -8 16 -12 35 -9 44 4
11 18 5 62 -28 32 -24 69 -43 85 -44 28 -2 28 -1 21 43 -5 38 -4 45 10 45 23
0 20 7 -18 44 -19 18 -38 44 -41 59 -7 27 -7 27 44 27 44 0 51 -3 51 -20z
m2170 0 c0 -5 -6 -10 -14 -10 -8 0 -17 -6 -19 -12 -3 -7 -6 -3 -6 10 -1 16 5
22 19 22 11 0 20 -4 20 -10z m2170 2 c0 -14 -41 -33 -60 -27 -31 10 -12 35 26
35 19 0 34 -3 34 -8z m295 -187 l-7 -100 -64 -32 -64 -32 0 30 c0 18 -4 28
-10 24 -6 -4 -17 -1 -25 5 -12 10 -18 10 -30 0 -22 -18 -39 1 -31 34 4 15 15
26 29 28 21 4 20 5 -10 24 -36 21 -38 34 -5 49 12 5 22 15 22 22 0 7 5 13 10
13 6 0 10 7 10 15 0 17 2 18 24 9 13 -5 16 -24 18 -93 l2 -86 3 83 c2 45 8 82
13 82 6 0 10 8 10 19 0 29 23 43 54 31 23 -8 26 -7 26 13 0 13 6 29 13 36 17
17 21 -43 12 -174z m-4315 165 c0 -5 -4 -10 -10 -10 -5 0 -10 5 -10 10 0 6 5
10 10 10 6 0 10 -4 10 -10z m184 -16 c4 -9 -2 -14 -17 -14 -53 0 -90 24 -49
32 28 6 60 -3 66 -18z m2036 21 c0 -14 -54 -85 -65 -85 -16 0 -27 27 -14 36 5
3 7 14 4 24 -5 15 0 20 22 23 48 7 53 7 53 2z m1677 -17 c-3 -8 -6 -5 -6 6 -1
11 2 17 5 13 3 -3 4 -12 1 -19z m-1995 -159 c3 -59 8 -112 12 -118 4 -6 22
-11 39 -11 45 0 65 -14 41 -29 -11 -6 -13 -11 -6 -11 8 0 10 -5 5 -12 -4 -7
-8 -20 -8 -28 0 -11 -12 -15 -41 -16 -22 0 -46 -4 -52 -8 -7 -4 -12 -5 -12 -2
0 2 -3 11 -6 20 -4 11 -1 16 11 16 14 0 15 3 6 14 -9 11 -9 15 1 19 7 3 3 6
-9 6 -20 1 -35 21 -15 21 4 0 6 47 4 104 -3 68 0 111 8 125 6 13 13 21 15 19
1 -1 5 -51 7 -109z m2006 94 c2 -9 -7 -13 -27 -13 -30 0 -39 9 -24 24 11 10
46 3 51 -11z m-3767 -22 c12 -13 18 -50 23 -127 l7 -109 -25 30 c-26 31 -28
39 -30 112 -1 24 -7 48 -14 55 -7 7 -12 22 -12 35 0 29 29 31 51 4z m2082 12
c-7 -2 -21 -2 -30 0 -10 3 -4 5 12 5 17 0 24 -2 18 -5z m1582 -73 c0 -8 -10
-16 -22 -18 -22 -3 -32 16 -16 32 12 11 38 2 38 -14z m230 -10 c3 -5 -1 -10
-10 -10 -9 0 -13 5 -10 10 3 6 8 10 10 10 2 0 7 -4 10 -10z m-4238 -22 c47
-32 44 -54 -4 -28 -43 23 -74 25 -91 8 -9 -9 -12 -7 -12 9 0 16 7 23 28 26 15
2 31 5 36 6 6 0 25 -9 43 -21z m4727 -56 c-4 -15 -6 -34 -5 -41 2 -12 0 -12
-11 -4 -9 8 -19 9 -28 3 -23 -15 -60 -12 -60 4 0 8 15 26 33 40 17 14 39 33
47 41 13 13 15 13 23 -1 5 -8 5 -27 1 -42z m-534 18 c-14 -11 -32 -20 -41 -20
-9 0 -19 -9 -22 -19 -5 -20 -54 -57 -63 -48 -7 7 61 77 76 77 7 0 23 9 37 20
15 11 29 18 32 14 3 -3 -5 -14 -19 -24z m-270 -5 c0 -9 -9 -15 -25 -15 -24 0
-32 10 -18 23 12 13 43 7 43 -8z m-3783 -41 c-3 -3 -12 -4 -19 -1 -8 3 -5 6 6
6 11 1 17 -2 13 -5z m485 -6 c-9 -9 -15 -9 -24 0 -9 9 -7 12 12 12 19 0 21 -3
12 -12z m1408 -53 c0 -8 -4 -15 -10 -15 -5 0 -10 7 -10 15 0 8 5 15 10 15 6 0
10 -7 10 -15z m-1533 -67 c-2 -13 -4 -5 -4 17 -1 22 1 32 4 23 2 -10 2 -28 0
-40z m3276 45 c9 -9 -12 -33 -29 -33 -8 0 -14 9 -14 20 0 19 28 28 43 13z
m-1753 -56 c0 -31 -6 -49 -20 -62 -22 -20 -23 -17 -20 35 4 73 40 97 40 27z
m200 36 c0 -5 -5 -15 -10 -23 -8 -12 -10 -11 -10 8 0 12 5 22 10 22 6 0 10 -3
10 -7z m86 -61 c6 -36 4 -41 -9 -37 -8 4 -17 23 -20 43 -9 71 17 66 29 -6z
m1414 24 c0 -14 -21 -26 -46 -26 -12 0 -12 4 -2 20 15 23 48 27 48 6z m670
-36 c0 -27 5 -50 10 -50 6 0 10 10 10 23 0 28 8 38 44 61 l29 18 -7 -100 c-7
-95 -6 -101 14 -115 12 -9 29 -13 37 -10 11 4 13 0 8 -18 -3 -13 -7 -37 -9
-52 -1 -15 -7 -32 -13 -38 -14 -14 -69 -7 -65 9 1 7 -9 12 -28 12 -20 0 -30
-5 -30 -15 0 -8 -9 -15 -20 -15 -11 0 -20 7 -20 15 0 8 -4 15 -10 15 -5 0 -9
-6 -7 -12 1 -8 -11 -14 -28 -16 -16 -2 -34 -8 -39 -13 -6 -5 -16 -9 -23 -9
-16 0 -17 47 -2 206 11 113 13 121 38 136 14 9 45 17 69 17 l42 1 0 -50z m299
-42 c0 -99 -16 -213 -35 -250 -10 -18 -10 -28 -3 -30 8 -3 8 -25 -2 -78 -9
-49 -15 -66 -17 -47 -4 32 -16 34 -59 7 l-33 -20 0 48 c0 72 8 90 51 109 42
20 50 33 19 33 -17 0 -20 6 -19 43 0 23 3 60 7 82 6 32 12 40 30 41 12 1 25 3
27 6 5 4 11 39 19 98 4 35 5 40 11 40 2 0 4 -37 4 -82z m-3865 -63 c58 -57
106 -107 106 -110 0 -3 -38 -5 -85 -5 -59 0 -85 4 -85 12 0 7 -6 4 -12 -5 -22
-29 -39 -4 -44 64 -3 35 -9 66 -15 67 -19 7 -8 22 24 31 25 7 27 9 10 10 -13
1 -23 3 -23 5 0 8 12 36 16 36 1 0 50 -47 108 -105z m137 78 c9 -8 15 -22 12
-32 -3 -11 0 -22 6 -25 6 -4 11 -12 11 -19 0 -6 -18 8 -40 32 -42 45 -53 75
-22 64 9 -3 24 -12 33 -20z m2176 -70 c-2 -16 -4 -5 -4 22 0 28 2 40 4 28 2
-13 2 -35 0 -50z m-2097 -8 c0 -8 -4 -15 -10 -15 -5 0 -10 7 -10 15 0 8 5 15
10 15 6 0 10 -7 10 -15z m-586 -14 c10 -10 14 -21 9 -24 -4 -3 -16 6 -26 19
-21 28 -8 32 17 5z m1911 -41 c3 -5 1 -10 -4 -10 -6 0 -11 5 -11 10 0 6 2 10
4 10 3 0 8 -4 11 -10z m1115 -15 c0 -9 -6 -12 -16 -8 -13 5 -13 7 -2 14 17 11
18 11 18 -6z m-1124 -62 c-13 -14 -25 9 -13 28 12 20 12 20 15 -1 2 -12 1 -24
-2 -27z m-2312 31 c17 -7 22 -34 6 -34 -5 0 -14 9 -20 20 -12 22 -10 23 14 14z
m3459 -18 c21 -16 22 -49 2 -66 -18 -15 -20 -40 -3 -40 9 0 8 -3 -1 -12 -11
-11 -14 -10 -18 0 -3 6 -10 9 -15 6 -7 -5 -8 -2 -3 6 4 7 7 37 6 66 -2 57 3
62 32 40z m460 -16 c5 -4 4 -34 -2 -66 -6 -32 -11 -87 -11 -124 0 -36 -5 -71
-11 -77 -6 -6 -8 -16 -5 -22 12 -19 23 -12 29 17 3 16 18 34 36 45 25 15 31
25 31 53 0 35 15 45 37 23 7 -7 25 -3 61 15 55 28 66 31 57 17 -3 -5 4 -12 15
-16 11 -3 20 -14 20 -23 0 -10 10 -2 25 20 25 37 56 55 75 43 18 -11 10 -25
-15 -25 -14 0 -25 -4 -25 -10 0 -5 9 -10 20 -10 15 0 20 -6 19 -27 -1 -17 -3
-21 -6 -10 -5 20 -2 20 -42 6 -25 -9 -29 -14 -20 -25 13 -15 -1 -19 -16 -5 -6
5 -39 -5 -82 -25 l-71 -33 -7 -76 c-7 -73 -6 -77 19 -104 31 -32 32 -41 6 -41
-13 0 -25 14 -38 43 -20 44 -100 130 -86 92 4 -11 16 -31 26 -44 10 -13 18
-28 18 -34 0 -5 -10 3 -22 19 -12 16 -25 31 -28 34 -3 3 -13 17 -23 33 -22 35
-41 36 -33 1 6 -23 5 -24 -15 -13 -13 6 -33 21 -45 33 -36 33 -53 46 -60 46
-3 0 -16 8 -29 19 -18 13 -21 21 -12 30 8 8 7 11 -6 11 -9 0 -17 -4 -17 -10 0
-5 -19 -10 -42 -10 -40 1 -42 2 -24 15 11 8 32 15 47 15 26 0 27 2 22 34 -4
26 0 42 16 65 20 28 25 30 65 25 41 -6 44 -5 50 22 14 57 66 85 99 54z m-3137
-35 c4 -8 12 -15 20 -15 8 0 14 -7 14 -15 0 -8 7 -15 15 -15 8 0 15 -7 15 -15
0 -8 9 -15 21 -15 11 0 17 -5 14 -10 -8 -13 -32 0 -74 39 -18 17 -37 31 -42
31 -5 0 -9 7 -9 15 0 8 5 15 10 15 6 0 13 -7 16 -15z m-878 -39 c3 -15 0 -17
-20 -11 -30 10 -31 11 -23 25 10 17 39 8 43 -14z m-77 -48 c1 -73 10 -113 26
-113 21 0 22 -11 5 -61 -18 -48 -38 -62 -36 -24 0 12 -6 20 -15 20 -14 1 -14
3 2 14 22 17 21 25 -2 50 -14 15 -20 41 -23 93 -5 78 -4 83 24 83 15 0 18 -9
19 -62z m4829 58 c0 -3 -4 -8 -10 -11 -5 -3 -10 -1 -10 4 0 6 5 11 10 11 6 0
10 -2 10 -4z m-4797 -98 l-11 -33 -1 45 c-1 33 2 41 11 32 8 -8 8 -20 1 -44z
m2267 -283 c0 -330 0 -335 -20 -323 -18 12 -19 25 -17 323 1 281 2 292 7 120
l5 -190 8 109 c4 60 7 151 7 203 0 51 2 93 5 93 3 0 5 -151 5 -335z m1420 318
c8 -13 13 -14 16 -5 7 16 34 15 57 -3 18 -13 18 -14 -3 -25 -33 -18 -60 -43
-60 -57 0 -7 7 -10 15 -7 12 5 13 1 4 -24 -8 -22 -15 -29 -29 -25 -13 3 -22
-1 -26 -11 -4 -11 -16 -16 -33 -15 -45 3 -81 -17 -81 -46 0 -16 -4 -24 -11
-20 -6 4 -13 -2 -16 -14 -5 -21 -6 -20 -29 6 -13 16 -24 23 -24 16 0 -6 5 -15
10 -18 6 -3 10 -14 9 -23 0 -11 -2 -12 -6 -4 -6 15 -63 46 -71 38 -3 -4 0 -12
6 -18 18 -18 15 -33 -3 -18 -32 26 -27 -2 6 -36 l34 -36 -32 7 c-36 7 -73 -8
-73 -30 0 -8 -5 -15 -11 -15 -8 0 -9 12 -4 38 5 20 9 58 9 85 1 29 5 47 13 47
18 0 26 19 15 33 -6 7 -13 35 -17 62 -4 30 -3 45 2 37 5 -7 35 -13 67 -15 50
-2 58 -5 63 -24 6 -27 11 -28 34 -7 10 9 33 18 51 20 42 5 52 16 55 60 3 58
39 84 63 47z m-2633 -19 c-3 -3 -12 -4 -19 -1 -8 3 -5 6 6 6 11 1 17 -2 13 -5z
m3423 -6 c0 -5 -7 -8 -15 -8 -8 0 -15 -5 -15 -11 0 -5 -4 -7 -10 -4 -20 12
-10 33 15 31 14 0 25 -4 25 -8z m-2832 -10 c7 -6 12 -34 12 -66 l0 -55 -45 6
c-38 6 -48 3 -69 -18 -16 -16 -31 -22 -45 -18 -20 5 -21 3 -15 -23 6 -27 3
-25 -39 21 -26 28 -46 60 -47 73 0 19 5 22 40 22 33 0 40 -3 40 -20 0 -11 -7
-20 -15 -20 -8 0 -15 -7 -15 -17 0 -9 3 -13 7 -10 3 4 12 2 20 -5 20 -17 25
-5 31 71 l5 71 61 -1 c33 -1 67 -6 74 -11z m779 -20 c-3 -8 -6 -5 -6 6 -1 11
2 17 5 13 3 -3 4 -12 1 -19z m840 2 c18 0 24 -4 20 -14 -3 -8 -1 -17 6 -20 7
-2 -2 -5 -19 -5 -21 -1 -34 5 -38 15 -4 9 -13 14 -21 10 -8 -3 -15 -2 -15 3 0
14 14 22 28 16 7 -3 25 -5 39 -5z m233 -4 c0 -3 -4 -8 -10 -11 -5 -3 -10 -1
-10 4 0 6 5 11 10 11 6 0 10 -2 10 -4z m-1649 -26 l59 0 0 -40 c0 -26 6 -42
16 -48 11 -6 13 -11 5 -16 -6 -4 -8 -18 -5 -32 l6 -24 -98 0 c-97 0 -100 -1
-128 -31 -22 -23 -35 -29 -55 -25 -14 3 -59 7 -98 8 -48 2 -73 7 -73 15 0 13
51 27 90 26 14 -1 38 3 55 8 24 8 32 6 43 -8 12 -16 14 -15 37 12 21 26 23 37
18 82 -8 72 0 87 38 79 18 -3 58 -6 90 -6z m2714 -31 c-4 -5 -13 -9 -22 -9
-13 0 -13 3 -3 15 13 15 35 11 25 -6z m-85 -9 c0 -13 -28 -25 -38 -16 -3 4 0
11 8 16 20 13 30 12 30 0z m-3206 -30 c33 1 67 5 76 10 21 11 50 -11 50 -39 0
-12 5 -31 10 -41 9 -18 7 -19 -17 -15 -52 9 -138 14 -230 15 -89 0 -93 1 -99
24 -3 13 -1 33 4 43 10 17 17 18 79 10 37 -4 95 -8 127 -7z m3463 -27 c-3 -10
-5 -2 -5 17 0 19 2 27 5 18 2 -10 2 -26 0 -35z m-861 22 c4 -8 13 -15 22 -15
8 0 13 -3 9 -6 -3 -4 -17 -4 -30 0 -28 7 -45 36 -21 36 8 0 17 -7 20 -15z
m800 -12 c-10 -10 -19 5 -10 18 6 11 8 11 12 0 2 -7 1 -15 -2 -18z m-3792 -20
c33 -21 70 -46 81 -56 11 -11 44 -33 72 -49 29 -16 56 -34 59 -39 11 -18 -16
-8 -66 26 -29 19 -57 35 -64 35 -14 0 -166 102 -166 112 0 16 24 7 84 -29z
m3486 33 c0 -3 -4 -8 -10 -11 -5 -3 -10 -1 -10 4 0 6 5 11 10 11 6 0 10 -2 10
-4z m-4248 -27 c34 1 58 -3 58 -9 0 -5 -14 -10 -32 -10 -46 0 -31 -7 32 -15
60 -8 90 -20 90 -37 0 -7 5 -6 15 2 20 17 14 33 -16 41 -21 6 -19 7 11 8 35 1
35 1 35 -45 0 -26 6 -48 14 -53 10 -7 9 -11 -5 -22 -11 -8 -26 -23 -34 -33
-14 -18 -13 -19 3 -13 9 3 17 3 17 -2 0 -12 120 -60 158 -63 18 -1 38 -8 44
-15 6 -7 17 -13 25 -13 8 0 29 -6 46 -14 56 -24 88 -36 94 -36 3 0 3 14 1 30
-4 24 -1 30 14 30 11 0 16 5 13 11 -4 6 -13 8 -21 5 -8 -3 -14 1 -14 8 0 8 8
13 17 12 12 0 19 7 21 22 3 22 18 28 39 14 6 -4 15 -34 20 -67 l9 -60 8 83 c5
45 11 82 15 82 15 0 31 -25 31 -48 0 -18 -4 -23 -16 -18 -14 6 -16 1 -10 -36
4 -24 14 -49 23 -55 16 -12 15 -14 -3 -27 -21 -16 -21 -17 21 -33 28 -10 50
-18 128 -46 19 -7 25 -13 18 -20 -7 -7 -32 -3 -78 12 -37 13 -75 24 -83 26 -8
2 -42 13 -74 23 -32 11 -66 18 -74 15 -8 -4 -18 1 -23 10 -5 8 -23 18 -40 22
-17 4 -42 13 -57 21 -15 8 -36 14 -47 14 -37 1 -116 26 -108 34 4 5 -12 6 -37
3 -25 -2 -39 -3 -32 0 23 9 12 21 -25 28 -21 4 -44 11 -50 17 -9 7 -15 5 -19
-7 -5 -12 -11 -6 -25 25 -10 23 -23 39 -28 36 -12 -8 -53 49 -43 58 22 23 -3
49 -58 61 -43 9 -70 26 -70 43 0 9 7 11 22 6 13 -4 49 -6 80 -5z m2335 -31
c-3 -8 -6 -5 -6 6 -1 11 2 17 5 13 3 -3 4 -12 1 -19z m-882 2 c-3 -5 -10 -10
-16 -10 -5 0 -9 5 -9 10 0 6 7 10 16 10 8 0 12 -4 9 -10z m2807 -6 c-24 -17
-39 -14 -27 5 3 6 16 11 28 11 l21 0 -22 -16z m349 -31 c-5 -47 -5 -48 -11
-13 -6 36 -3 60 9 60 3 0 4 -21 2 -47z m-1991 17 c0 -5 -7 -7 -15 -4 -8 4 -15
8 -15 10 0 2 7 4 15 4 8 0 15 -4 15 -10z m1897 -27 c-3 -10 -5 -4 -5 12 0 17
2 24 5 18 2 -7 2 -21 0 -30z m-4132 18 c-17 -7 -17 -9 -3 -17 20 -11 30 -145
11 -151 -22 -8 -73 39 -78 71 -14 85 -13 90 25 97 50 9 68 9 45 0z m1512 -68
c-3 -10 -5 -2 -5 17 0 19 2 27 5 18 2 -10 2 -26 0 -35z m-1259 -7 c2 -9 -3
-16 -10 -16 -20 0 -58 29 -58 45 0 12 5 12 33 0 17 -7 33 -20 35 -29z m687 16
c-10 -2 -15 -16 -15 -39 0 -47 -6 -40 -14 19 l-7 47 25 -12 c17 -8 21 -13 11
-15z m-1392 -21 c4 -1 7 -13 7 -27 0 -14 -4 -23 -10 -19 -11 7 -13 -18 -4 -63
6 -28 8 -29 21 -16 9 8 18 12 21 9 3 -3 0 -11 -6 -17 -7 -7 -13 -28 -13 -47
-2 -31 -3 -32 -6 -8 -3 21 -10 27 -29 27 -13 0 -24 5 -24 11 0 7 -8 18 -18 25
-9 7 -12 14 -6 14 13 0 2 66 -13 81 -5 5 -25 3 -46 -3 -40 -12 -50 -7 -61 27
-6 19 -3 20 87 13 50 -3 95 -7 100 -7z m3126 -31 c6 -18 6 -30 0 -30 -5 0 -9
5 -9 12 0 9 -3 9 -12 0 -21 -21 -27 -13 -15 18 6 17 14 30 18 30 4 0 12 -13
18 -30z m-2212 -35 c16 -51 17 -195 1 -195 -35 1 -42 18 -45 116 -1 54 -4 103
-7 110 -7 18 4 24 24 12 10 -6 22 -25 27 -43z m1520 8 c-3 -10 -5 -2 -5 17 0
19 2 27 5 18 2 -10 2 -26 0 -35z m-2301 9 c-2 -1 -16 0 -31 4 -18 4 -23 9 -14
14 11 7 53 -9 45 -18z m834 -9 c0 -14 -3 -23 -7 -19 -10 10 -11 46 -1 46 4 0
8 -12 8 -27z m470 -40 c0 -18 -4 -33 -10 -33 -5 0 -10 12 -10 26 0 14 -7 32
-15 41 -22 21 -8 35 15 15 12 -10 20 -29 20 -49z m507 5 c-3 -7 -5 -2 -5 12 0
14 2 19 5 13 2 -7 2 -19 0 -25z m1243 12 c0 -5 -4 -10 -10 -10 -5 0 -10 5 -10
10 0 6 5 10 10 10 6 0 10 -4 10 -10z m1611 -20 c20 0 7 -18 -21 -30 -37 -15
-46 -9 -30 20 7 13 17 19 27 16 8 -3 19 -6 24 -6z m-3757 -37 c10 -64 7 -95
-11 -109 -32 -24 -33 -21 -35 71 -1 54 6 75 23 75 11 0 18 -12 23 -37z m2241
27 c-3 -5 -10 -10 -16 -10 -5 0 -9 5 -9 10 0 6 7 10 16 10 8 0 12 -4 9 -10z
m-2498 -37 c-3 -10 -5 -4 -5 12 0 17 2 24 5 18 2 -7 2 -21 0 -30z m1063 2 c7
-8 8 -15 2 -15 -5 0 -15 7 -22 15 -7 8 -8 15 -2 15 5 0 15 -7 22 -15z m-462
-15 c7 -12 21 -19 34 -17 21 2 23 -2 23 -58 0 -60 0 -60 -27 -57 -40 4 -38
-27 2 -34 25 -5 30 -11 30 -34 0 -16 -6 -31 -12 -34 -10 -5 -10 -7 0 -12 26
-12 12 -34 -23 -34 -24 0 -35 5 -35 15 0 8 5 15 11 15 6 0 9 6 6 13 -2 6 -10
11 -16 10 -12 -3 -14 22 -16 165 -1 45 1 82 4 82 4 0 12 -9 19 -20z m2847 10
c3 -5 3 -15 -1 -21 -4 -7 -9 -30 -11 -53 -3 -36 -15 -55 -35 -56 -5 0 -8 5 -8
10 0 6 7 10 15 10 9 0 16 10 17 25 0 14 1 31 2 38 1 6 -6 12 -14 12 -16 0 -20
6 -20 30 0 17 45 21 55 5z m-2626 -26 c10 -23 9 -26 -4 -21 -11 5 -15 0 -15
-18 0 -14 -4 -25 -10 -25 -11 0 -14 73 -3 83 12 12 20 7 32 -19z m3166 -12
c-2 -15 -5 -27 -6 -27 -2 0 -5 -22 -13 -105 -7 -65 -12 -80 -26 -80 -6 0 -8
31 -3 89 5 82 4 89 -13 94 -17 4 -17 6 4 12 14 5 22 15 22 30 0 18 4 22 19 18
14 -4 19 -12 16 -31z m118 26 c3 -10 7 -10 18 -2 8 6 22 9 31 5 15 -5 13 -8
-12 -19 -23 -11 -29 -20 -32 -50 -3 -32 -7 -37 -31 -40 -15 -2 -32 -13 -39
-25 -11 -21 -11 -21 -19 -2 -4 11 -8 38 -8 60 0 34 5 43 32 62 37 25 54 28 60
11z m-2415 -108 c0 -16 -3 -10 -9 15 -4 22 -8 54 -7 70 0 22 3 19 9 -15 4 -25
7 -56 7 -70z m599 81 c20 -26 15 -36 -6 -13 -17 20 -28 22 -130 22 -62 0 -110
3 -107 8 2 4 55 6 117 4 90 -4 116 -8 126 -21z m1615 -15 c-9 -25 -20 -42 -24
-40 -5 3 -5 10 -2 16 5 7 1 9 -9 5 -12 -4 -17 -1 -17 11 0 31 14 42 61 51 4 0
-1 -19 -9 -43z m-4403 11 c11 -29 3 -77 -15 -84 -10 -4 -14 -24 -14 -65 l0
-59 -24 25 c-13 15 -28 26 -35 26 -6 0 -11 7 -11 15 0 8 -7 15 -15 15 -18 0
-21 46 -3 52 8 3 8 9 1 22 -5 9 -7 30 -5 47 4 28 6 29 58 29 48 0 56 -3 63
-23z m-152 7 c-3 -3 -12 -4 -19 -1 -8 3 -5 6 6 6 11 1 17 -2 13 -5z m2511 -29
c45 2 84 -1 87 -6 4 -5 -31 -9 -82 -9 -89 1 -123 12 -123 41 1 9 7 7 19 -8 16
-19 26 -21 99 -18z m1882 -44 c-7 -11 -9 -3 -9 29 1 42 1 43 9 16 6 -17 5 -36
0 -45z m-343 37 c-3 -8 -6 -5 -6 6 -1 11 2 17 5 13 3 -3 4 -12 1 -19z m143 13
c0 -6 -4 -13 -10 -16 -5 -3 -10 1 -10 9 0 9 5 16 10 16 6 0 10 -4 10 -9z m250
5 c0 -3 -4 -8 -10 -11 -5 -3 -10 -1 -10 4 0 6 5 11 10 11 6 0 10 -2 10 -4z
m-4075 -26 c104 -31 117 -41 107 -81 -3 -14 -9 -15 -39 -6 -20 6 -38 20 -43
33 -12 30 -40 39 -47 14 -7 -26 -23 -26 -23 0 0 11 -4 20 -10 20 -5 0 -10 -9
-10 -20 0 -26 -40 -27 -47 -1 -3 11 -22 24 -46 32 l-42 14 65 6 c66 6 81 5
135 -11z m-521 -12 c8 -33 7 -48 -4 -48 -5 0 -10 8 -10 19 0 24 -25 45 -45 38
-8 -4 -17 -2 -20 3 -4 6 11 10 33 10 33 0 41 -4 46 -22z m3050 -35 c-8 -44
-11 -50 -23 -37 -14 14 -1 74 16 74 11 0 12 -8 7 -37z m376 22 c0 -11 -10 -15
-37 -14 -28 1 -31 3 -13 6 14 3 29 9 35 14 12 12 15 11 15 -6z m-2747 -2 c-7
-2 -19 -2 -25 0 -7 3 -2 5 12 5 14 0 19 -2 13 -5z m1776 -30 c-1 -38 -1 -38
-9 -9 -8 27 -6 46 6 46 2 0 4 -17 3 -37z m1891 7 c0 -16 -4 -30 -10 -30 -5 0
-10 6 -10 14 0 8 -6 17 -12 19 -10 4 -9 8 2 16 24 17 30 13 30 -19z m-3590 -3
c0 -13 -3 -26 -6 -30 -12 -12 -34 6 -34 29 0 17 6 24 20 24 14 0 20 -7 20 -23z
m1942 3 l60 0 -5 -72 c-3 -46 -9 -73 -16 -72 -6 1 -38 2 -71 3 -57 1 -60 2
-60 26 0 16 -6 25 -15 25 -11 0 -15 12 -15 51 l0 52 31 -7 c17 -3 58 -6 91 -6z
m-2019 -17 c-7 -2 -19 -2 -25 0 -7 3 -2 5 12 5 14 0 19 -2 13 -5z m341 -31
c-21 -5 -46 6 -40 17 4 5 16 4 31 -2 18 -9 20 -13 9 -15z m1507 -72 c10 -43
29 -147 50 -270 5 -30 13 -71 18 -90 5 -19 17 -75 26 -125 9 -49 23 -121 31
-160 8 -38 25 -126 39 -195 14 -69 30 -141 35 -160 13 -50 24 -156 15 -148 -7
7 -10 21 -59 268 -15 74 -29 144 -32 155 -2 11 -12 58 -20 105 -9 47 -21 117
-29 155 -29 158 -47 254 -60 325 -8 41 -19 98 -24 125 -5 28 -9 64 -9 80 1 26
1 26 5 5 2 -14 8 -45 14 -70z m1013 66 c-3 -8 -13 -14 -22 -13 -9 0 -29 -2
-43 -6 -15 -4 -33 -1 -43 6 -15 11 -12 12 21 9 21 -2 49 1 63 7 14 5 26 10 27
10 1 1 0 -5 -3 -13z m913 -8 c-3 -8 -6 -5 -6 6 -1 11 2 17 5 13 3 -3 4 -12 1
-19z m-17 2 c0 -5 -4 -10 -10 -10 -5 0 -10 5 -10 10 0 6 5 10 10 10 6 0 10 -4
10 -10z m-1600 -47 l-13 -28 -10 29 c-7 21 -6 30 4 37 23 14 34 -8 19 -38z
m-2332 24 c7 -6 12 -35 12 -78 0 -73 -5 -79 -54 -60 -20 8 -23 18 -33 104 l-5
47 34 -2 c18 -1 39 -6 46 -11z m272 -23 c0 -21 -4 -33 -10 -29 -5 3 -10 13
-10 21 0 8 -4 14 -10 14 -5 0 -7 7 -4 15 12 30 34 16 34 -21z m3447 30 c-3 -3
-12 -4 -19 -1 -8 3 -5 6 6 6 11 1 17 -2 13 -5z m463 -28 c0 -11 -5 -28 -10
-36 -7 -12 -10 -8 -11 15 l-1 30 -10 -27 c-8 -25 -11 -26 -24 -13 -21 21 -2
53 31 53 19 0 25 -6 25 -22z m-4091 8 l31 -6 0 -71 0 -70 -42 7 c-23 4 -44 8
-45 10 -8 7 -15 106 -10 120 7 17 19 19 66 10z m3625 -20 c3 -8 2 -12 -4 -9
-6 3 -10 10 -10 16 0 14 7 11 14 -7z m656 1 c6 3 10 2 10 -4 0 -14 -33 -31
-59 -31 -12 0 -21 7 -21 16 0 8 5 12 10 9 6 -3 10 1 10 10 0 13 4 14 20 5 11
-6 25 -8 30 -5z m-2720 -26 c0 -5 -4 -9 -10 -9 -5 0 -10 7 -10 16 0 8 5 12 10
9 6 -3 10 -10 10 -16z m64 6 c-4 -8 -8 -15 -10 -15 -2 0 -4 7 -4 15 0 8 4 15
10 15 5 0 7 -7 4 -15z m92 4 c3 -6 2 -15 -4 -21 -7 -7 -14 -3 -21 11 -10 17
-9 21 3 21 8 0 18 -5 22 -11z m-989 -5 c-3 -3 -12 -4 -19 -1 -8 3 -5 6 6 6 11
1 17 -2 13 -5z m2235 -31 c22 -21 58 -64 80 -95 21 -32 42 -58 46 -58 4 0 21
-13 37 -28 56 -52 76 -62 116 -56 41 7 58 -8 37 -33 -12 -15 -11 -15 10 -2 12
8 22 19 22 26 0 7 6 13 13 13 6 0 27 14 45 31 26 25 31 34 21 45 -9 11 -8 19
7 37 31 35 48 47 55 35 4 -7 9 -7 13 0 9 15 64 -17 72 -41 6 -18 -19 -57 -71
-112 -21 -23 -23 -24 -30 -8 -6 16 -8 16 -16 -4 -4 -13 -15 -23 -24 -23 -8 0
-15 -5 -15 -11 0 -5 -10 -9 -22 -7 -19 2 -23 -2 -23 -25 -1 -16 -6 -31 -12
-35 -6 -4 -21 -28 -33 -54 -12 -27 -25 -48 -29 -48 -19 0 -17 14 5 56 29 54
29 58 5 44 -11 -5 -31 -10 -44 -10 -27 0 -43 -15 -48 -44 -2 -11 -9 -21 -16
-23 -7 -3 -10 3 -6 15 2 11 0 23 -6 26 -17 11 -25 -42 -10 -61 12 -14 11 -15
-11 -8 -49 15 -48 29 9 94 11 13 21 27 21 30 -1 13 -50 61 -62 61 -16 1 -78
56 -78 70 0 6 -11 15 -25 20 -14 5 -25 15 -25 22 0 7 -12 21 -26 33 l-26 20
21 27 c27 34 26 53 -4 84 -21 21 -29 23 -40 14 -9 -8 -15 -8 -15 -2 0 10 15
19 33 21 4 1 26 -16 49 -36z m1198 27 c0 -5 -4 -10 -10 -10 -5 0 -10 5 -10 10
0 6 5 10 10 10 6 0 10 -4 10 -10z m-3990 -30 c0 -5 -4 -10 -10 -10 -5 0 -10 5
-10 10 0 6 5 10 10 10 6 0 10 -4 10 -10z m1958 3 c-21 -2 -57 -2 -80 0 -24 2
-7 4 37 4 44 0 63 -2 43 -4z m-1498 -13 c0 -5 -4 -10 -10 -10 -5 0 -10 5 -10
10 0 6 5 10 10 10 6 0 10 -4 10 -10z m360 -7 c0 -10 -8 -48 -17 -85 -13 -52
-22 -68 -35 -68 -16 0 -18 10 -18 78 0 43 3 82 7 85 3 4 19 7 35 7 20 0 28 -5
28 -17z m1600 12 c0 -14 -32 -81 -46 -96 -8 -9 -16 -30 -18 -45 -2 -17 -10
-30 -20 -32 -19 -4 -21 16 -3 43 7 11 19 40 26 65 7 25 18 51 23 58 10 12 38
17 38 7z m-2242 -17 c7 -7 12 -18 12 -26 0 -8 9 -25 20 -39 11 -14 20 -37 20
-51 0 -22 -3 -24 -27 -18 -16 4 -33 7 -40 8 -6 1 -3 13 10 30 18 24 19 32 9
49 -7 11 -10 24 -7 29 4 6 -1 10 -9 10 -8 0 -18 5 -21 10 -9 14 19 12 33 -2z
m-211 -4 c-3 -3 -12 -4 -19 -1 -8 3 -5 6 6 6 11 1 17 -2 13 -5z m673 -39 c-11
-13 -10 -51 2 -70 8 -13 9 -84 1 -109 -11 -39 -21 8 -22 105 -1 85 1 98 14 93
11 -5 13 -10 5 -19z m734 -30 c-4 -8 -10 -12 -15 -9 -11 6 -2 24 11 24 5 0 7
-7 4 -15z m786 -11 c0 -10 -13 -14 -44 -14 -35 0 -46 -4 -51 -19 -3 -10 -5
-23 -4 -27 7 -42 -24 -63 -34 -24 -3 11 -11 20 -17 20 -10 0 -10 -3 0 -15 11
-13 7 -19 -11 -17 -4 1 -5 -7 -2 -17 3 -10 -1 -22 -7 -26 -9 -6 -11 9 -8 56
l3 64 -37 3 c-33 3 -38 0 -38 -17 0 -12 -4 -21 -10 -21 -5 0 -10 9 -10 19 0
12 -9 21 -25 25 -79 20 44 35 221 28 56 -3 74 -7 74 -18z m-417 -11 c9 -46 -4
-133 -19 -133 -13 0 -21 52 -14 85 1 6 2 25 2 43 0 40 23 43 31 5z m1882 15
c9 -8 -16 -108 -26 -108 -4 0 -10 6 -12 13 -3 6 -6 3 -7 -8 -1 -15 -4 -13 -10
9 -11 35 -6 46 21 46 10 0 19 5 19 11 0 6 -9 9 -20 6 -11 -3 -23 -1 -26 4 -3
6 -13 9 -22 8 -47 -4 -122 2 -122 11 0 5 16 9 35 8 19 -1 37 1 39 3 7 7 124 4
131 -3z m38 -8 c3 -11 1 -20 -4 -20 -5 0 -9 9 -9 20 0 11 2 20 4 20 2 0 6 -9
9 -20z m527 -8 c-24 -8 -37 -26 -33 -42 4 -13 -3 -15 -31 -12 -36 4 -36 4 -36
-33 0 -52 15 -75 51 -75 27 0 29 -2 23 -27 -9 -40 -19 -47 -51 -38 -15 5 -38
7 -50 6 -25 -3 -40 16 -24 32 6 6 11 30 11 54 0 24 3 43 8 43 4 0 8 16 9 35 3
29 0 35 -18 35 -11 0 -18 -4 -15 -8 2 -4 1 -14 -5 -22 -7 -12 -9 -10 -9 8 0
12 -6 22 -14 22 -30 0 -46 -13 -46 -37 0 -13 -4 -21 -10 -18 -5 3 -10 19 -10
35 0 35 19 47 92 58 51 7 187 -7 158 -16z m-4292 3 c50 0 81 -4 79 -10 -4 -11
-13 -11 -179 -1 -109 7 -118 6 -118 -10 0 -15 -2 -16 -12 -5 -11 10 -9 15 7
27 16 12 33 13 80 7 33 -4 97 -8 143 -8z m3975 3 c-2 -5 -3 -15 -3 -23 0 -9
-9 -15 -24 -15 -13 0 -26 7 -30 15 -3 9 -18 15 -36 15 -17 0 -29 4 -26 9 7 11
122 9 119 -1z m-4239 -18 c-14 -14 -108 -25 -131 -14 -14 6 -9 9 22 14 67 12
120 11 109 0z m1720 -23 c-3 -9 -11 -17 -16 -17 -6 0 -7 7 -4 16 3 9 6 21 6
27 0 8 3 8 10 1 6 -6 8 -18 4 -27z m2550 -14 c-4 -27 -11 -52 -17 -58 -6 -7
-8 1 -3 24 3 18 6 44 6 57 0 13 4 24 10 24 6 0 7 -19 4 -47z m-4504 -3 c0 -5
-4 -10 -10 -10 -5 0 -10 5 -10 10 0 6 5 10 10 10 6 0 10 -4 10 -10z m181 0
c31 0 22 -20 -12 -27 -26 -5 -30 -10 -26 -29 2 -13 0 -24 -4 -24 -5 0 -9 21
-9 46 0 38 3 45 16 40 9 -3 24 -6 35 -6z m2557 -16 c2 -12 -4 -29 -14 -38 -15
-16 -18 -16 -35 3 -18 20 -18 21 -2 41 22 25 47 22 51 -6z m-2298 -2 c-14 -2
-29 -8 -34 -12 -8 -8 -50 -5 -86 6 -32 11 11 19 76 15 38 -3 58 -6 44 -9z
m3626 0 c1 -7 0 -8 -3 -2 -10 21 -23 9 -23 -23 0 -18 -5 -38 -11 -44 -12 -12
-3 -53 12 -53 5 0 13 8 17 18 10 24 19 -107 10 -136 -4 -12 -9 -36 -10 -52 -1
-17 -4 -30 -7 -30 -9 0 -30 36 -31 52 0 9 -5 18 -11 20 -8 3 -9 41 -4 136 l7
133 26 -3 c14 -2 27 -9 28 -16z m-4408 1 c-16 -2 -40 -2 -55 0 -16 2 -3 4 27
4 30 0 43 -2 28 -4z m2180 -30 c-2 -14 -8 -28 -15 -30 -10 -4 -12 26 -4 55 1
1 6 2 12 2 6 0 9 -12 7 -27z m-1586 -56 c-4 -33 -5 -34 -53 -36 -43 -2 -49 0
-49 19 0 11 6 20 14 20 9 0 13 8 9 23 -4 21 -4 22 11 3 15 -19 16 -18 16 13
l0 32 28 -20 c23 -16 27 -25 24 -54z m2288 63 c0 -5 -7 -10 -16 -10 -8 0 -12
5 -9 10 3 6 10 10 16 10 5 0 9 -4 9 -10z m-1124 -131 l4 -104 105 2 c104 3
105 2 105 -20 0 -23 -31 -57 -62 -69 -9 -4 -19 -21 -23 -38 -5 -25 -11 -30
-26 -25 -10 4 -19 2 -19 -3 0 -5 -11 -9 -25 -9 -20 0 -25 4 -25 26 0 15 6 33
12 39 10 10 7 12 -12 10 -16 -2 -24 2 -22 10 1 8 -14 12 -52 12 l-53 0 -7 61
c-10 104 -9 117 17 121 20 3 22 8 19 55 -3 43 -1 52 15 55 35 9 45 -15 49
-123z m941 99 c-3 -8 -6 -5 -6 6 -1 11 2 17 5 13 3 -3 4 -12 1 -19z m2197 5
c-4 -10 -9 -37 -10 -61 -2 -61 -14 -65 -14 -4 0 56 7 82 22 82 6 0 7 -7 2 -17z
m-3877 -75 c-2 -18 -4 -6 -4 27 0 33 2 48 4 33 2 -15 2 -42 0 -60z m2248 72
c3 -5 1 -10 -4 -10 -6 0 -11 5 -11 10 0 6 2 10 4 10 3 0 8 -4 11 -10z m-698
-22 c-3 -8 -6 -5 -6 6 -1 11 2 17 5 13 3 -3 4 -12 1 -19z m1684 -68 c-8 -22
-10 -18 -10 26 -1 28 2 54 7 58 11 12 14 -57 3 -84z m-991 54 c0 -8 -10 -14
-25 -14 -27 0 -32 9 -14 27 14 14 39 6 39 -13z m-3373 -16 c-3 -7 -5 -2 -5 12
0 14 2 19 5 13 2 -7 2 -19 0 -25z m3610 -15 c-3 -10 -5 -4 -5 12 0 17 2 24 5
18 2 -7 2 -21 0 -30z m1009 -2 c4 -11 8 -10 19 5 13 18 14 17 15 -13 0 -23 5
-33 15 -33 11 0 15 -12 15 -46 0 -28 -4 -43 -10 -39 -6 3 -8 16 -4 29 3 14 -1
27 -10 35 -18 15 -18 15 -16 -56 1 -38 -2 -53 -12 -53 -32 1 -36 15 -30 115 3
55 7 93 9 85 3 -8 7 -21 9 -29z m-2349 -103 c-2 -24 -4 -7 -4 37 0 44 2 63 4
43 2 -21 2 -57 0 -80z m2280 35 c-2 -16 -4 -5 -4 22 0 28 2 40 4 28 2 -13 2
-35 0 -50z m501 49 c2 -7 -3 -12 -12 -12 -9 0 -16 7 -16 16 0 17 22 14 28 -4z
m-4328 -22 c0 -14 3 -35 6 -47 4 -14 2 -23 -5 -23 -6 0 -11 14 -11 31 0 24 -4
30 -15 25 -11 -4 -15 1 -15 17 0 16 6 23 20 23 15 0 20 -7 20 -26z m3535 20
c3 -5 1 -10 -4 -10 -6 0 -11 5 -11 10 0 6 2 10 4 10 3 0 8 -4 11 -10z m-4195
-10 c0 -5 -4 -10 -10 -10 -5 0 -10 5 -10 10 0 6 5 10 10 10 6 0 10 -4 10 -10z
m2647 -12 c-3 -8 -6 -5 -6 6 -1 11 2 17 5 13 3 -3 4 -12 1 -19z m885 -31 c-5
-7 -13 -27 -17 -44 -3 -18 -11 -33 -16 -33 -12 0 -12 26 1 48 5 9 15 31 22 47
9 23 12 26 15 12 3 -10 0 -23 -5 -30z m-2962 18 c0 -8 -7 -15 -15 -15 -16 0
-20 12 -8 23 11 12 23 8 23 -8z m-590 -46 c0 -11 -4 -17 -10 -14 -5 3 -10 13
-10 21 0 8 5 14 10 14 6 0 10 -9 10 -21z m57 -11 c-3 -8 -6 -5 -6 6 -1 11 2
17 5 13 3 -3 4 -12 1 -19z m563 -38 c0 -16 -4 -30 -10 -30 -5 0 -10 14 -10 30
0 17 5 30 10 30 6 0 10 -13 10 -30z m-182 8 c9 -9 17 -8 37 2 33 18 72 -2 80
-41 4 -16 11 -31 16 -34 16 -10 10 -25 -10 -25 -11 0 -23 -4 -26 -10 -13 -21
-43 -9 -59 23 -9 19 -16 25 -16 15 0 -12 -8 -18 -21 -18 -18 0 -20 4 -15 25 5
21 2 27 -21 37 -37 16 -36 15 -28 27 8 15 48 14 63 -1z m3592 -18 c0 -5 -7
-10 -16 -10 -8 0 -12 5 -9 10 3 6 10 10 16 10 5 0 9 -4 9 -10z m30 0 c0 -5 -4
-10 -10 -10 -5 0 -10 5 -10 10 0 6 5 10 10 10 6 0 10 -4 10 -10z m-213 -26
c-3 -3 -12 -4 -19 -1 -8 3 -5 6 6 6 11 1 17 -2 13 -5z m720 -29 c8 -24 -3 -29
-27 -12 -15 11 -18 16 -8 20 22 9 28 8 35 -8z m-3463 -60 c5 -42 4 -56 -3 -45
-10 13 -16 119 -7 109 2 -2 7 -31 10 -64z m1568 -55 c3 -63 2 -101 -2 -85 -8
30 -13 212 -6 204 2 -2 5 -56 8 -119z m305 73 c-3 -10 -5 -4 -5 12 0 17 2 24
5 18 2 -7 2 -21 0 -30z m-2197 8 c6 -12 17 -17 29 -14 10 3 22 0 25 -6 5 -7
-3 -11 -18 -11 -16 0 -26 -6 -26 -15 0 -8 -6 -15 -14 -15 -8 0 -16 -6 -19 -14
-3 -7 -18 -16 -34 -19 -45 -10 -148 -35 -148 -37 0 -1 -11 -3 -24 -4 -22 -3
-61 20 -61 35 0 7 70 29 94 29 9 0 25 9 36 20 24 24 40 26 40 5 0 -8 4 -15 9
-15 19 0 41 12 41 23 0 11 40 54 52 56 4 1 12 -8 18 -18z m125 9 c4 -6 -10
-10 -37 -9 -40 1 -41 2 -13 9 43 11 43 11 50 0z m1202 -22 c-3 -7 -5 -2 -5 12
0 14 2 19 5 13 2 -7 2 -19 0 -25z m530 -55 c-3 -10 -5 -4 -5 12 0 17 2 24 5
18 2 -7 2 -21 0 -30z m-1738 -132 c1 -57 -1 -102 -4 -100 -2 3 -6 61 -9 129
-3 77 -2 115 3 100 5 -14 9 -72 10 -129z m1005 112 c-4 -16 -8 -30 -10 -32 -2
-2 1 -10 6 -16 15 -18 92 -8 112 15 24 29 28 25 28 -22 0 -52 -15 -81 -29 -58
-26 41 -36 49 -64 43 -18 -3 -32 -15 -38 -30 -11 -30 -31 -38 -58 -23 -15 8
-32 8 -58 1 -48 -14 -63 -1 -63 55 0 49 8 54 35 24 15 -16 29 -20 64 -18 43 3
46 5 49 33 4 41 10 55 22 55 6 0 8 -11 4 -27z m-1074 -28 c0 -32 -4 -45 -14
-45 -8 0 -16 -5 -18 -12 -9 -26 -28 6 -28 47 0 40 2 44 28 48 15 2 28 5 30 6
1 0 2 -19 2 -44z m-700 25 c0 -6 -10 -14 -22 -19 -18 -6 -19 -9 -5 -14 10 -4
17 -14 17 -22 0 -9 -4 -14 -10 -10 -5 3 -18 -3 -30 -15 -11 -11 -25 -20 -30
-20 -16 0 -12 47 6 64 14 15 13 16 -7 16 -45 0 0 18 74 29 4 0 7 -4 7 -9z
m350 -15 c0 -17 -36 -39 -50 -30 -6 3 -10 2 -10 -4 0 -12 83 -26 105 -17 9 3
15 0 15 -8 0 -14 -62 -26 -134 -26 -64 0 -86 9 -86 35 0 19 7 24 45 30 25 3
43 10 40 15 -7 11 12 18 48 19 17 1 27 -4 27 -14z m3777 -37 c-2 -13 -4 -5 -4
17 -1 22 1 32 4 23 2 -10 2 -28 0 -40z m-3281 -14 c-3 -9 -6 -25 -6 -35 0 -12
-4 -17 -11 -14 -6 4 -8 9 -5 12 2 3 1 16 -4 29 -8 21 -7 24 11 24 15 0 19 -5
15 -16z m-746 -4 c0 -5 -4 -10 -10 -10 -5 0 -10 5 -10 10 0 6 5 10 10 10 6 0
10 -4 10 -10z m2540 -20 c0 -10 5 -22 10 -25 12 -8 13 -25 2 -25 -11 0 -32 45
-32 66 0 8 5 12 10 9 6 -3 10 -15 10 -25z m-700 -122 c-7 -73 -17 -139 -23
-146 -5 -7 -7 -32 -5 -57 3 -25 2 -45 -3 -45 -5 0 -9 -7 -9 -15 0 -8 -5 -15
-11 -15 -7 0 -9 8 -4 23 4 12 13 65 21 117 7 52 18 118 23 145 5 28 10 70 10
94 1 24 4 41 8 38 3 -4 0 -67 -7 -139z m-80 112 c0 -5 -9 -10 -21 -10 -11 0
-17 5 -14 10 3 6 13 10 21 10 8 0 14 -4 14 -10z m-1630 -46 c0 -25 1 -25 55
-19 30 4 55 5 55 2 0 -8 -92 -53 -120 -59 -14 -3 -61 -3 -105 1 l-80 7 72 8
c40 5 70 12 68 17 -3 4 4 10 15 14 20 7 28 25 10 25 -5 0 -10 7 -10 15 0 8 9
15 20 15 15 0 20 -7 20 -26z m2007 4 c-3 -8 -6 -5 -6 6 -1 11 2 17 5 13 3 -3
4 -12 1 -19z m504 -19 c-26 -11 -39 10 -16 27 17 13 20 13 26 -3 4 -12 0 -20
-10 -24z m-2744 9 c-3 -8 -6 -5 -6 6 -1 11 2 17 5 13 3 -3 4 -12 1 -19z m2560
-65 c-2 -16 -4 -5 -4 22 0 28 2 40 4 28 2 -13 2 -35 0 -50z m1531 12 c-1 -25
-5 -45 -10 -45 -5 0 -13 -10 -19 -22 -9 -22 -9 -22 -4 2 2 14 5 44 5 68 0 29
4 42 14 42 10 0 14 -13 14 -45z m-4118 -14 c0 -46 11 -51 96 -51 136 0 158 -6
115 -30 -28 -15 -51 -12 -51 5 0 20 -25 19 -46 -2 -11 -11 -31 -17 -56 -17
-26 1 -38 -3 -38 -12 0 -18 -38 -17 -70 1 l-25 14 34 1 c36 0 36 -3 15 102 -5
23 -3 27 10 22 9 -3 16 -18 16 -33z m2081 -166 c-13 -127 -19 -161 -20 -115
-2 94 26 332 35 305 2 -5 -5 -91 -15 -190z m-1371 156 c0 -17 -18 -31 -41 -31
-14 0 -11 38 4 43 25 11 37 7 37 -12z m1887 -143 c-2 -18 -4 -6 -4 27 0 33 2
48 4 33 2 -15 2 -42 0 -60z m-2467 -86 c0 -20 -4 -31 -10 -27 -5 3 -10 25 -10
48 0 31 3 38 10 27 5 -8 10 -30 10 -48z m4897 52 c-3 -3 -12 -4 -19 -1 -8 3
-5 6 6 6 11 1 17 -2 13 -5z m-2198 -81 c1 -7 -3 -13 -9 -13 -5 0 -10 15 -9 33
0 27 2 29 9 12 5 -11 9 -26 9 -32z m320 12 c72 4 74 4 44 -10 -45 -19 -193 -8
-193 15 0 4 16 4 36 0 21 -5 71 -7 113 -5z m188 8 c-20 -2 -52 -2 -70 0 -17 2
0 4 38 4 39 0 53 -2 32 -4z m-1073 -211 c-3 -164 -13 -307 -20 -299 -3 2 -5
21 -6 41 -2 60 -18 52 -18 -8 0 -49 -2 -56 -20 -56 -11 0 -20 5 -20 12 0 27
35 118 45 118 14 0 25 116 25 270 0 58 4 99 8 92 5 -6 7 -83 6 -170z m-2134
133 c0 -8 -4 -15 -10 -15 -5 0 -10 7 -10 15 0 8 5 15 10 15 6 0 10 -7 10 -15z
m1983 -90 c4 -8 2 -17 -3 -20 -6 -4 -10 3 -10 14 0 25 6 27 13 6z m467 -31 c0
-27 -4 -43 -10 -39 -5 3 -10 24 -10 46 0 21 5 39 10 39 6 0 10 -21 10 -46z
m2130 36 c0 -5 -2 -10 -4 -10 -3 0 -8 5 -11 10 -3 6 -1 10 4 10 6 0 11 -4 11
-10z m-4561 -150 c0 -36 -2 -50 -8 -41 -5 8 -7 20 -4 28 3 8 -2 13 -16 13 -12
0 -21 -4 -21 -10 0 -18 -20 -11 -21 8 0 9 -5 2 -10 -17 -12 -40 -8 -46 20 -31
20 10 21 8 21 -30 0 -36 -3 -40 -24 -40 -19 0 -23 -4 -19 -20 7 -24 26 -25 64
-3 15 9 32 14 36 9 23 -22 -67 -80 -143 -92 -41 -6 -44 -5 -45 17 0 13 -2 38
-4 54 -2 17 -6 55 -9 85 -2 30 -8 80 -12 111 -7 63 -3 69 51 71 24 1 40 -5 49
-17 11 -16 16 -16 42 -4 18 9 31 24 33 39 6 33 19 -53 20 -130z m2076 64 c-4
-27 -11 -44 -20 -44 -24 0 -24 14 -2 64 23 55 32 47 22 -20z m1532 -66 c-2
-13 -4 -3 -4 22 0 25 2 35 4 23 2 -13 2 -33 0 -45z m-1647 23 c0 -42 -13 -81
-27 -81 -11 0 -14 6 -9 23 4 12 9 34 12 50 7 31 24 37 24 8z m464 2 c3 -10 8
-36 11 -58 l6 -40 -20 24 c-13 14 -21 37 -21 57 0 36 15 46 24 17z m-528 -58
c-3 -8 -12 -12 -20 -9 -12 5 -12 8 2 23 18 18 28 10 18 -14z m154 5 c0 -10 -4
-22 -10 -25 -6 -4 -10 7 -10 25 0 18 4 29 10 25 6 -3 10 -15 10 -25z m2530 -4
c0 -17 -49 -31 -63 -17 -15 15 2 31 34 31 18 0 29 -5 29 -14z m-4567 -39 c3
-7 -3 -13 -13 -13 -10 0 -16 6 -13 13 3 7 9 13 13 13 4 0 10 -6 13 -13z m1933
-23 c-3 -9 -6 -28 -6 -43 0 -15 -7 -36 -15 -47 -13 -17 -14 -14 -15 44 0 56 2
62 21 62 15 0 19 -4 15 -16z m499 -71 c4 -22 3 -33 -5 -33 -7 0 -9 -8 -5 -20
5 -14 2 -20 -9 -20 -13 0 -16 14 -16 78 1 70 2 75 14 52 8 -14 17 -40 21 -57z
m2131 12 c-5 -19 -13 -25 -34 -26 l-27 -1 25 -7 c27 -8 27 -5 16 -131 -9 -90
-12 -98 -51 -102 l-30 -3 -3 118 -3 117 -42 2 -42 1 43 4 c34 3 42 8 42 24 0
15 7 19 38 19 20 0 44 4 52 10 19 12 24 6 16 -25z m-4616 15 c0 -5 -7 -10 -15
-10 -8 0 -15 5 -15 10 0 6 7 10 15 10 8 0 15 -4 15 -10z m3642 -27 c0 -10 2
-29 3 -43 2 -14 6 -38 10 -54 7 -26 6 -27 -12 -17 -21 11 -36 73 -26 111 7 25
22 26 25 3z m-1505 -75 c-3 -7 -5 -2 -5 12 0 14 2 19 5 13 2 -7 2 -19 0 -25z
m-2094 -45 c-13 -10 -19 -11 -22 -2 -2 6 1 14 6 18 6 3 14 17 19 31 l9 25 3
-30 c3 -20 -2 -33 -15 -42z m1922 20 c-2 -16 -9 -68 -16 -118 -11 -86 -29
-137 -29 -85 0 32 20 201 25 218 8 24 24 12 20 -15z m525 -62 c0 -32 3 -79 6
-105 6 -38 4 -46 -10 -46 -9 0 -16 6 -17 13 -14 193 -14 197 4 197 14 0 17 -9
17 -59z m1025 -40 c-8 -13 -55 -15 -55 -2 0 5 12 11 28 13 32 4 36 3 27 -11z
m1105 -271 c0 -5 -4 -10 -10 -10 -5 0 -10 5 -10 10 0 6 5 10 10 10 6 0 10 -4
10 -10z m-2530 -10 c0 -5 -5 -10 -11 -10 -5 0 -7 5 -4 10 3 6 8 10 11 10 2 0
4 -4 4 -10z m-32 -25 c-3 -3 -9 2 -12 12 -6 14 -5 15 5 6 7 -7 10 -15 7 -18z
m262 -181 c0 -120 -3 -155 -12 -151 -10 3 -13 42 -15 143 -2 147 0 164 17 164
6 0 10 -55 10 -156z"/>
<path d="M701 4204 c0 -11 3 -14 6 -6 3 7 2 16 -1 19 -3 4 -6 -2 -5 -13z"/>
<path d="M695 4150 c-3 -5 -1 -10 4 -10 6 0 11 5 11 10 0 6 -2 10 -4 10 -3 0
-8 -4 -11 -10z"/>
<path d="M697 4103 c-2 -5 0 -21 4 -38 7 -29 7 -29 8 8 1 35 -3 46 -12 30z"/>
<path d="M840 3676 c0 -14 5 -26 10 -26 6 0 10 9 10 19 0 11 -4 23 -10 26 -6
4 -10 -5 -10 -19z"/>
<path d="M801 4374 c0 -11 3 -14 6 -6 3 7 2 16 -1 19 -3 4 -6 -2 -5 -13z"/>
<path d="M4730 4201 c0 -17 2 -31 4 -31 8 0 13 51 5 56 -5 3 -9 -9 -9 -25z"/>
<path d="M4631 3994 c0 -11 3 -14 6 -6 3 7 2 16 -1 19 -3 4 -6 -2 -5 -13z"/>
<path d="M3867 3966 c-3 -8 1 -17 9 -20 9 -4 14 1 14 14 0 23 -15 27 -23 6z"/>
<path d="M4262 3880 c0 -14 2 -19 5 -12 2 6 2 18 0 25 -3 6 -5 1 -5 -13z"/>
<path d="M4214 3879 c-5 -8 -9 -21 -9 -29 0 -10 -12 -16 -32 -18 -35 -3 -36
-5 -27 -38 7 -28 82 -53 95 -32 13 20 11 62 -5 98 -10 24 -15 29 -22 19z"/>
<path d="M1830 3770 c0 -28 3 -30 35 -30 32 0 35 2 35 30 0 28 -3 30 -35 30
-32 0 -35 -2 -35 -30z"/>
<path d="M2117 3708 c-27 -15 -22 -41 7 -34 15 4 26 1 29 -7 2 -6 8 -9 12 -5
4 4 -1 18 -12 31 -15 19 -23 23 -36 15z"/>
<path d="M980 3349 c0 -16 5 -20 20 -16 11 3 20 1 20 -4 0 -5 7 -9 15 -9 8 0
15 4 15 9 0 5 -7 14 -15 21 -8 7 -15 9 -15 4 0 -4 -5 -3 -12 4 -18 18 -28 15
-28 -9z"/>
<path d="M1723 3173 c9 -2 23 -2 30 0 6 3 -1 5 -18 5 -16 0 -22 -2 -12 -5z"/>
<path d="M5165 3290 c-3 -5 1 -10 9 -10 9 0 16 5 16 10 0 6 -4 10 -9 10 -6 0
-13 -4 -16 -10z"/>
<path d="M2925 3201 c-12 -38 4 -52 54 -49 62 4 68 29 11 52 -51 20 -57 20
-65 -3z"/>
<path d="M5200 2759 c0 -5 5 -7 10 -4 6 3 10 8 10 11 0 2 -4 4 -10 4 -5 0 -10
-5 -10 -11z"/>
<path d="M4507 2753 c-9 -16 -6 -113 3 -113 6 0 10 10 11 23 0 12 2 37 3 55 4
30 -7 52 -17 35z"/>
<path d="M1970 2535 c0 -3 7 -14 16 -23 15 -14 16 -14 13 3 -4 17 -29 35 -29
20z"/>
<path d="M798 2463 c7 -3 16 -2 19 1 4 3 -2 6 -13 5 -11 0 -14 -3 -6 -6z"/>
<path d="M258 1713 c-10 -2 -18 -9 -18 -14 0 -6 4 -8 9 -4 5 3 13 1 16 -5 5
-8 11 -7 21 1 28 23 15 34 -28 22z"/>
<path d="M255 1570 c-3 -5 -1 -10 4 -10 6 0 11 5 11 10 0 6 -2 10 -4 10 -3 0
-8 -4 -11 -10z"/>
<path d="M322 5613 c9 -2 22 -17 28 -34 7 -16 18 -29 25 -29 18 0 25 -23 25
-84 0 -48 3 -55 47 -99 36 -37 53 -47 79 -47 25 0 42 -10 79 -47 69 -70 127
-148 170 -230 25 -50 43 -73 56 -73 19 0 51 -38 43 -52 -3 -4 -2 -13 2 -20 14
-22 23 25 18 92 -8 119 33 286 53 211 3 -12 11 -21 18 -21 7 0 16 -11 19 -25
5 -18 13 -25 31 -25 13 0 29 -8 34 -17 6 -10 11 -13 11 -6 0 6 -5 15 -11 19
-6 3 -9 17 -6 30 2 13 0 24 -4 24 -5 0 -9 16 -9 35 0 28 4 35 20 35 25 0 60
34 60 58 1 21 23 52 39 52 6 0 11 18 11 44 0 34 6 49 25 67 28 27 32 44 10 53
-10 3 -16 21 -17 53 -1 37 -2 40 -5 16 -4 -33 -16 -39 -47 -27 -23 9 -20 33 7
44 14 5 -106 9 -320 9 l-343 1 -1 -47 c-1 -39 -2 -43 -8 -23 -19 61 -32 70
-96 69 -33 -1 -53 -3 -43 -6z m355 -45 c-3 -8 -6 -5 -6 6 -1 11 2 17 5 13 3
-3 4 -12 1 -19z m486 -68 c3 -11 1 -20 -4 -20 -5 0 -9 9 -9 20 0 11 2 20 4 20
2 0 6 -9 9 -20z"/>
<path d="M1925 5573 c4 -27 16 -83 28 -126 20 -77 32 -94 106 -157 13 -11 20
-20 15 -21 -5 0 4 -5 20 -9 43 -13 83 -2 81 22 -2 26 -33 45 -41 24 -11 -28
-33 -24 -72 13 l-40 39 24 12 c15 9 21 17 15 24 -5 6 -12 34 -16 61 -17 124
-41 165 -96 165 l-30 0 6 -47z"/>
<path d="M2811 5509 c1 -61 -3 -114 -8 -118 -5 -3 -10 -17 -11 -31 -4 -75 -17
-83 -129 -84 -39 -1 -75 -4 -79 -8 -4 -5 19 -8 52 -8 56 -1 58 -1 34 -15 -22
-13 -7 -14 146 -15 200 0 193 -3 217 105 25 114 49 276 43 282 -3 4 -6 -6 -6
-21 0 -14 -7 -29 -15 -32 -9 -4 -15 -19 -15 -35 0 -45 -16 -34 -19 12 -4 73
-13 79 -119 79 l-93 0 2 -111z m72 -119 c-3 -11 -9 -17 -14 -14 -14 8 -10 34
5 34 9 0 12 -7 9 -20z m-8 -79 c-3 -12 -11 -21 -16 -21 -10 0 -12 21 -3 45 10
24 27 2 19 -24z m-55 19 c0 -5 -4 -10 -10 -10 -5 0 -10 5 -10 10 0 6 5 10 10
10 6 0 10 -4 10 -10z m124 -29 c3 -5 -1 -12 -10 -15 -20 -8 -29 -1 -19 13 8
13 22 14 29 2z"/>
<path d="M4889 5593 c-70 -80 -71 -80 -52 -78 18 1 44 24 92 78 23 25 23 27 5
27 -11 0 -31 -12 -45 -27z"/>
<path d="M4933 5569 c-7 -7 -13 -24 -13 -38 0 -23 1 -24 16 -9 9 8 14 25 12
37 -2 18 -5 20 -15 10z"/>
<path d="M4713 5539 c-7 -7 -13 -22 -13 -33 0 -19 1 -19 16 -4 9 8 14 23 12
32 -2 14 -5 15 -15 5z"/>
<path d="M310 5530 c0 -5 5 -10 10 -10 6 0 10 5 10 10 0 6 -4 10 -10 10 -5 0
-10 -4 -10 -10z"/>
<path d="M4592 5507 c-12 -32 -17 -156 -7 -145 6 6 27 169 22 174 -2 2 -9 -11
-15 -29z"/>
<path d="M4661 5514 c0 -11 3 -14 6 -6 3 7 2 16 -1 19 -3 4 -6 -2 -5 -13z"/>
<path d="M303 5450 c0 -36 2 -50 4 -32 2 17 2 47 0 65 -2 17 -4 3 -4 -33z"/>
<path d="M336 5496 c3 -9 11 -16 16 -16 13 0 5 23 -10 28 -7 2 -10 -2 -6 -12z"/>
<path d="M4807 5462 c-26 -28 -22 -52 4 -25 12 11 20 26 17 33 -2 7 -9 5 -21
-8z"/>
<path d="M4713 5394 c-28 -32 -48 -65 -48 -80 -1 -13 -6 -29 -12 -35 -12 -12
-6 -49 9 -49 5 0 6 5 3 10 -10 16 5 50 21 50 8 0 14 10 14 24 0 28 35 76 56
76 9 0 14 11 14 30 0 17 -2 30 -4 30 -3 0 -26 -25 -53 -56z"/>
<path d="M4727 5337 c-4 -10 -7 -26 -7 -35 1 -15 2 -15 11 1 6 10 9 25 7 35
-3 16 -4 15 -11 -1z"/>
<path d="M2128 5333 c7 -3 16 -2 19 1 4 3 -2 6 -13 5 -11 0 -14 -3 -6 -6z"/>
<path d="M2227 5278 c-8 -29 -1 -38 29 -38 25 0 32 14 13 26 -8 4 -3 12 12 20
23 13 23 13 -12 14 -29 0 -38 -4 -42 -22z"/>
<path d="M4492 5253 c-18 -32 -16 -51 4 -31 9 8 14 24 12 34 -4 18 -5 17 -16
-3z"/>
<path d="M4600 5250 c-9 -16 -8 -20 5 -20 8 0 15 9 15 20 0 11 -2 20 -5 20 -2
0 -9 -9 -15 -20z"/>
<path d="M1810 5183 c0 -5 5 -15 10 -23 8 -12 10 -11 10 8 0 12 -4 22 -10 22
-5 0 -10 -3 -10 -7z"/>
<path d="M1861 5004 c0 -11 3 -14 6 -6 3 7 2 16 -1 19 -3 4 -6 -2 -5 -13z"/>
<path d="M1191 5002 c0 -7 11 -35 25 -62 22 -43 26 -60 23 -117 -4 -68 -4 -68
23 -71 22 -3 32 -13 50 -52 24 -51 37 -60 100 -60 29 0 36 3 32 15 -4 10 6 20
30 32 37 17 44 27 26 38 -5 3 -10 24 -10 45 0 34 -5 41 -37 61 -21 13 -42 29
-46 36 -4 7 -14 13 -22 13 -21 0 -142 79 -149 97 -4 8 -13 13 -20 10 -9 -4
-17 1 -19 11 -3 9 -5 11 -6 4z"/>
<path d="M830 4858 c0 -43 8 -68 22 -68 6 0 7 17 3 43 -9 56 -25 72 -25 25z"/>
<path d="M900 4879 c0 -8 7 -24 15 -35 8 -10 15 -27 15 -36 0 -10 7 -18 15
-18 8 0 15 -9 15 -20 0 -13 5 -18 15 -14 14 6 21 -10 27 -65 2 -19 11 -27 37
-33 18 -5 35 -8 36 -6 2 2 -12 26 -30 53 -47 69 -57 83 -82 113 -60 75 -62 77
-63 61z"/>
<path d="M870 4844 c0 -3 5 -15 11 -26 9 -16 13 -18 20 -7 4 8 3 19 -3 26 -11
13 -28 18 -28 7z"/>
<path d="M1051 4813 c-1 -24 4 -43 9 -43 12 0 12 37 0 65 -7 15 -9 10 -9 -22z"/>
<path d="M4186 4787 c-19 -18 -54 -59 -80 -92 -26 -33 -50 -65 -55 -71 -6 -8
6 -9 43 -6 28 3 53 9 54 13 2 5 9 9 15 9 15 0 67 51 67 66 0 6 16 22 35 35 19
13 35 31 35 40 0 8 5 20 11 26 9 9 -1 12 -40 11 -44 0 -57 -5 -85 -31z"/>
<path d="M880 4756 c0 -7 7 -19 15 -26 13 -11 15 -8 15 14 0 16 -5 26 -15 26
-8 0 -15 -6 -15 -14z"/>
<path d="M3870 4711 c0 -6 5 -13 10 -16 6 -3 10 1 10 9 0 9 -4 16 -10 16 -5 0
-10 -4 -10 -9z"/>
<path d="M960 4682 c0 -11 6 -25 14 -31 11 -9 12 -6 8 14 -5 31 -22 43 -22 17z"/>
<path d="M1301 4664 c0 -11 3 -14 6 -6 3 7 2 16 -1 19 -3 4 -6 -2 -5 -13z"/>
<path d="M3833 4658 c-19 -25 -24 -38 -14 -38 11 0 35 39 28 46 -2 3 -9 -1
-14 -8z"/>
<path d="M1991 4564 c0 -11 3 -14 6 -6 3 7 2 16 -1 19 -3 4 -6 -2 -5 -13z"/>
<path d="M2010 4476 c0 -8 4 -17 9 -20 5 -4 7 3 4 14 -6 23 -13 26 -13 6z"/>
<path d="M3749 4283 c-59 -50 -109 -133 -79 -133 6 0 10 6 10 13 0 6 17 28 38
48 34 32 80 99 68 99 -2 0 -19 -12 -37 -27z"/>
<path d="M3636 4275 c-3 -9 -6 -26 -5 -38 1 -14 4 -9 9 13 9 37 7 52 -4 25z"/>
<path d="M3567 4230 c-7 -26 -4 -34 11 -29 4 2 5 15 2 29 l-6 25 -7 -25z"/>
<path d="M3313 4080 c0 -16 4 -30 9 -30 4 0 8 9 8 20 0 11 0 23 1 27 0 4 -4 9
-9 11 -5 1 -9 -11 -9 -28z"/>
<path d="M1731 4095 c-2 -24 16 -36 40 -26 l24 10 -27 0 c-14 1 -29 7 -31 14
-3 6 -6 8 -6 2z"/>
<path d="M3364 4074 c3 -9 6 -18 6 -20 0 -2 7 -4 15 -4 8 0 15 9 15 20 0 14
-7 20 -21 20 -15 0 -19 -4 -15 -16z"/>
<path d="M3719 4063 l-24 -28 28 24 c25 23 32 31 24 31 -2 0 -14 -12 -28 -27z"/>
<path d="M5238 4053 c7 -3 16 -2 19 1 4 3 -2 6 -13 5 -11 0 -14 -3 -6 -6z"/>
<path d="M3669 4013 c-13 -16 -12 -17 4 -4 16 13 21 21 13 21 -2 0 -10 -8 -17
-17z"/>
<path d="M5373 4010 c-3 -11 -9 -20 -13 -20 -4 0 -11 -11 -14 -25 -4 -16 -11
-23 -18 -19 -7 5 -9 2 -5 -9 9 -24 -14 -33 -29 -12 -9 12 -31 20 -64 23 -33 3
-50 9 -50 18 0 8 -4 14 -10 14 -5 0 -10 -7 -10 -15 0 -8 -4 -15 -10 -15 -5 0
-9 -35 -8 -82 3 -155 -2 -226 -17 -231 -7 -3 -12 -14 -11 -24 2 -15 12 -18 59
-18 30 0 58 -3 62 -7 4 -3 -19 -6 -50 -5 -54 1 -74 -9 -75 -37 0 -10 88 0 104
13 6 4 28 11 49 15 28 5 40 14 47 32 5 13 17 24 25 24 9 0 13 -4 10 -10 -11
-18 7 -10 26 12 17 19 19 40 19 210 0 175 -4 217 -17 168z m-27 -166 c-4 -9
-9 -15 -11 -12 -3 3 -3 13 1 22 4 9 9 15 11 12 3 -3 3 -13 -1 -22z m-56 -28
c0 -15 -18 -31 -26 -23 -7 7 7 37 17 37 5 0 9 -6 9 -14z m36 -80 c0 -15 -5
-21 -10 -16 -5 5 -6 16 -3 24 9 23 15 19 13 -8z m-56 -147 c0 -6 -4 -7 -10 -4
-5 3 -10 11 -10 16 0 6 5 7 10 4 6 -3 10 -11 10 -16z"/>
<path d="M5205 3990 c-3 -5 1 -10 9 -10 9 0 16 5 16 10 0 6 -4 10 -9 10 -6 0
-13 -4 -16 -10z"/>
<path d="M3271 3693 c-13 -45 -3 -57 38 -48 33 7 41 29 16 39 -9 3 -15 14 -13
23 2 10 -4 19 -14 21 -12 2 -20 -7 -27 -35z"/>
<path d="M80 3540 c0 -5 5 -10 11 -10 5 0 7 5 4 10 -3 6 -8 10 -11 10 -2 0 -4
-4 -4 -10z"/>
<path d="M5065 3540 c-3 -5 -1 -10 4 -10 6 0 11 5 11 10 0 6 -2 10 -4 10 -3 0
-8 -4 -11 -10z"/>
<path d="M2944 3426 c-9 -36 2 -46 47 -46 26 0 42 5 46 15 7 20 0 27 -31 29
-14 0 -28 7 -31 14 -7 20 -24 14 -31 -12z"/>
<path d="M4670 3390 c0 -5 11 -10 24 -10 14 0 28 5 31 10 4 6 -7 10 -24 10
-17 0 -31 -4 -31 -10z"/>
<path d="M5375 3320 c3 -5 8 -10 11 -10 2 0 4 5 4 10 0 6 -5 10 -11 10 -5 0
-7 -4 -4 -10z"/>
<path d="M4688 3243 c7 -3 16 -2 19 1 4 3 -2 6 -13 5 -11 0 -14 -3 -6 -6z"/>
<path d="M4640 3155 c0 -14 4 -25 9 -25 5 0 11 11 13 25 4 17 1 25 -8 25 -8 0
-14 -11 -14 -25z"/>
<path d="M439 3102 c-1 -4 0 -24 1 -46 2 -37 1 -38 -24 -32 -14 3 -26 2 -26
-3 0 -9 57 -21 103 -21 21 0 28 4 25 16 -2 8 -7 14 -12 14 -13 -2 -26 21 -26
46 0 19 -38 43 -41 26z"/>
<path d="M337 3074 c-4 -4 -7 -16 -7 -27 0 -10 -9 -21 -20 -24 -34 -9 -23 -25
13 -18 29 7 46 20 47 36 0 13 -26 40 -33 33z"/>
<path d="M320 2680 c0 -5 4 -10 9 -10 6 0 13 5 16 10 3 6 -1 10 -9 10 -9 0
-16 -4 -16 -10z"/>
<path d="M5337 2656 c-3 -8 -9 -53 -13 -100 -6 -82 -6 -86 14 -86 26 0 32 18
39 118 6 78 5 82 -14 82 -12 0 -23 -6 -26 -14z"/>
<path d="M5223 2513 c3 -25 10 -39 21 -41 9 -2 16 3 16 12 0 9 5 16 10 16 6 0
10 11 10 25 0 21 -5 25 -30 25 -29 0 -30 -2 -27 -37z"/>
<path d="M5153 2183 c9 -2 25 -2 35 0 9 3 1 5 -18 5 -19 0 -27 -2 -17 -5z"/>
<path d="M5288 2183 c7 -3 16 -2 19 1 4 3 -2 6 -13 5 -11 0 -14 -3 -6 -6z"/>
<path d="M4990 2082 c0 -5 7 -13 16 -16 24 -9 54 -7 54 4 0 6 -6 10 -12 10 -7
0 -23 3 -35 6 -13 4 -23 2 -23 -4z"/>
<path d="M4980 1991 c0 -32 4 -40 23 -45 49 -13 57 -8 57 33 0 32 -4 40 -22
45 -50 13 -58 8 -58 -33z"/>
<path d="M4995 1930 c-4 -6 -3 -14 0 -20 9 -15 35 -12 35 4 0 17 -27 29 -35
16z"/>
<path d="M4967 1894 c-18 -18 -6 -54 23 -69 16 -8 33 -15 38 -15 14 0 20 59 8
69 -16 14 -61 23 -69 15z"/>
<path d="M3142 1690 c0 -19 2 -27 5 -17 2 9 2 25 0 35 -3 9 -5 1 -5 -18z"/>
<path d="M3162 1615 c0 -16 2 -22 5 -12 2 9 2 23 0 30 -3 6 -5 -1 -5 -18z"/>
<path d="M2072 1610 c0 -14 2 -19 5 -12 2 6 2 18 0 25 -3 6 -5 1 -5 -13z"/>
<path d="M2022 1600 c0 -14 2 -19 5 -12 2 6 2 18 0 25 -3 6 -5 1 -5 -13z"/>
<path d="M3172 1550 c0 -19 2 -27 5 -17 2 9 2 25 0 35 -3 9 -5 1 -5 -18z"/>
<path d="M3133 1524 c3 -6 7 -29 8 -52 2 -22 6 -39 10 -36 10 6 -1 76 -14 89
-7 7 -8 6 -4 -1z"/>
<path d="M2011 1504 c0 -11 3 -14 6 -6 3 7 2 16 -1 19 -3 4 -6 -2 -5 -13z"/>
<path d="M3192 1470 c0 -19 2 -27 5 -17 2 9 2 25 0 35 -3 9 -5 1 -5 -18z"/>
<path d="M1978 1431 c-24 -23 -23 -41 2 -41 16 0 20 7 20 30 0 35 0 34 -22 11z"/>
<path d="M2042 1425 c0 -16 2 -22 5 -12 2 9 2 23 0 30 -3 6 -5 -1 -5 -18z"/>
<path d="M3201 1364 c0 -11 3 -14 6 -6 3 7 2 16 -1 19 -3 4 -6 -2 -5 -13z"/>
<path d="M1982 1330 c0 -14 2 -19 5 -12 2 6 2 18 0 25 -3 6 -5 1 -5 -13z"/>
<path d="M3171 1324 c0 -11 3 -14 6 -6 3 7 2 16 -1 19 -3 4 -6 -2 -5 -13z"/>
<path d="M3950 1318 c0 -28 19 -39 81 -44 53 -5 67 -3 78 10 21 25 5 33 -81
41 -62 5 -78 4 -78 -7z"/>
<path d="M3221 1294 c0 -11 3 -14 6 -6 3 7 2 16 -1 19 -3 4 -6 -2 -5 -13z"/>
<path d="M2012 1255 c0 -16 2 -22 5 -12 2 9 2 23 0 30 -3 6 -5 -1 -5 -18z"/>
<path d="M1961 1234 c0 -11 3 -14 6 -6 3 7 2 16 -1 19 -3 4 -6 -2 -5 -13z"/>
<path d="M3232 1225 c0 -16 2 -22 5 -12 2 9 2 23 0 30 -3 6 -5 -1 -5 -18z"/>
<path d="M4533 1205 c-3 -9 -3 -19 1 -22 3 -4 6 1 6 10 0 8 6 18 13 20 9 4 9
6 -1 6 -7 1 -15 -6 -19 -14z"/>
<path d="M3202 1180 c0 -14 2 -19 5 -12 2 6 2 18 0 25 -3 6 -5 1 -5 -13z"/>
<path d="M1952 1155 c0 -16 2 -22 5 -12 2 9 2 23 0 30 -3 6 -5 -1 -5 -18z"/>
<path d="M4555 1170 c3 -5 8 -10 11 -10 2 0 4 5 4 10 0 6 -5 10 -11 10 -5 0
-7 -4 -4 -10z"/>
<path d="M3251 1154 c0 -11 3 -14 6 -6 3 7 2 16 -1 19 -3 4 -6 -2 -5 -13z"/>
<path d="M3681 1163 l-34 -4 29 -16 c88 -49 101 -53 151 -53 49 0 54 2 64 27
5 14 6 29 2 33 -10 9 -166 19 -212 13z"/>
<path d="M4580 1161 c0 -6 5 -13 10 -16 6 -3 10 1 10 9 0 9 -4 16 -10 16 -5 0
-10 -4 -10 -9z"/>
<path d="M4610 1105 c0 -8 0 -18 -1 -22 0 -4 4 -9 10 -11 6 -2 11 8 11 22 0
14 -4 26 -10 26 -5 0 -10 -7 -10 -15z"/>
<path d="M1982 1080 c0 -19 2 -27 5 -17 2 9 2 25 0 35 -3 9 -5 1 -5 -18z"/>
<path d="M3262 1085 c0 -16 2 -22 5 -12 2 9 2 23 0 30 -3 6 -5 -1 -5 -18z"/>
<path d="M1931 1064 c0 -11 3 -14 6 -6 3 7 2 16 -1 19 -3 4 -6 -2 -5 -13z"/>
<path d="M3231 1044 c0 -11 3 -14 6 -6 3 7 2 16 -1 19 -3 4 -6 -2 -5 -13z"/>
<path d="M3270 1015 c0 -8 5 -15 10 -15 6 0 10 7 10 15 0 8 -4 15 -10 15 -5 0
-10 -7 -10 -15z"/>
<path d="M1967 1003 c-4 -3 -7 -11 -7 -17 0 -6 5 -5 12 2 6 6 9 14 7 17 -3 3
-9 2 -12 -2z"/>
<path d="M4540 996 c0 -9 7 -16 16 -16 17 0 14 22 -4 28 -7 2 -12 -3 -12 -12z"/>
<path d="M1922 975 c0 -16 2 -22 5 -12 2 9 2 23 0 30 -3 6 -5 -1 -5 -18z"/>
<path d="M3292 945 c0 -16 2 -22 5 -12 2 9 2 23 0 30 -3 6 -5 -1 -5 -18z"/>
<path d="M1952 900 c0 -19 2 -27 5 -17 2 9 2 25 0 35 -3 9 -5 1 -5 -18z"/>
<path d="M3262 900 c0 -14 2 -19 5 -12 2 6 2 18 0 25 -3 6 -5 1 -5 -13z"/>
<path d="M3300 876 c0 -9 5 -16 10 -16 6 0 10 4 10 9 0 6 -4 13 -10 16 -5 3
-10 -1 -10 -9z"/>
<path d="M1936 824 c-4 -9 -4 -19 -1 -22 2 -3 7 3 11 12 4 9 4 19 1 22 -2 3
-7 -3 -11 -12z"/>
<path d="M3322 805 c0 -16 2 -22 5 -12 2 9 2 23 0 30 -3 6 -5 -1 -5 -18z"/>
<path d="M1892 790 c0 -19 2 -27 5 -17 2 9 2 25 0 35 -3 9 -5 1 -5 -18z"/>
<path d="M1922 730 c0 -19 2 -27 5 -17 2 9 2 25 0 35 -3 9 -5 1 -5 -18z"/>
<path d="M3331 734 c0 -11 3 -14 6 -6 3 7 2 16 -1 19 -3 4 -6 -2 -5 -13z"/>
<path d="M1871 694 c0 -11 3 -14 6 -6 3 7 2 16 -1 19 -3 4 -6 -2 -5 -13z"/>
<path d="M3352 660 c0 -19 2 -27 5 -17 2 9 2 25 0 35 -3 9 -5 1 -5 -18z"/>
<path d="M1912 650 c0 -14 2 -19 5 -12 2 6 2 18 0 25 -3 6 -5 1 -5 -13z"/>
<path d="M1862 605 c0 -16 2 -22 5 -12 2 9 2 23 0 30 -3 6 -5 -1 -5 -18z"/>
<path d="M3362 590 c0 -14 2 -19 5 -12 2 6 2 18 0 25 -3 6 -5 1 -5 -13z"/>
<path d="M1893 560 c0 -25 2 -35 4 -22 2 12 2 32 0 45 -2 12 -4 2 -4 -23z"/>
<path d="M3382 505 c0 -16 2 -22 5 -12 2 9 2 23 0 30 -3 6 -5 -1 -5 -18z"/>
<path d="M1871 448 c-6 -35 -18 -103 -27 -153 -19 -108 -32 -145 -43 -126 -7
11 -10 11 -17 0 -4 -7 -3 -14 4 -17 19 -6 14 -22 -8 -22 -23 0 -25 -17 -8 -55
16 -35 55 -34 69 3 7 18 7 32 0 43 -5 9 -7 19 -4 22 3 4 7 28 8 54 1 26 10 91
19 143 23 130 29 170 23 170 -2 0 -10 -28 -16 -62z"/>
<path d="M3392 440 c0 -14 2 -19 5 -12 2 6 2 18 0 25 -3 6 -5 1 -5 -13z"/>
<path d="M1832 425 c0 -16 2 -22 5 -12 2 9 2 23 0 30 -3 6 -5 -1 -5 -18z"/>
<path d="M3400 383 c0 -5 5 -15 10 -23 8 -12 10 -11 10 8 0 12 -4 22 -10 22
-5 0 -10 -3 -10 -7z"/>
<path d="M1821 334 c0 -11 3 -14 6 -6 3 7 2 16 -1 19 -3 4 -6 -2 -5 -13z"/>
<path d="M3421 313 c-1 -7 -10 -13 -22 -13 -15 0 -19 -4 -14 -19 3 -11 2 -22
-4 -25 -5 -3 -6 -18 -2 -34 6 -21 14 -28 39 -30 27 -3 34 1 42 23 12 33 13 31
-3 47 -7 7 -18 24 -24 38 -6 14 -12 19 -12 13z"/>
<path d="M1802 245 c0 -16 2 -22 5 -12 2 9 2 23 0 30 -3 6 -5 -1 -5 -18z"/>
<path d="M995 10 c-30 -8 -30 -8 8 -9 23 -1 36 3 32 9 -3 6 -7 9 -8 9 -1 -1
-15 -5 -32 -9z"/>
<path d="M1165 9 c-11 -4 479 -8 1089 -8 610 -1 1106 2 1102 7 -10 9 -2166 11
-2191 1z"/>
<path d="M748 3 c7 -3 16 -2 19 1 4 3 -2 6 -13 5 -11 0 -14 -3 -6 -6z"/>
<path d="M813 3 c9 -2 25 -2 35 0 9 3 1 5 -18 5 -19 0 -27 -2 -17 -5z"/>
<path d="M878 3 c7 -3 16 -2 19 1 4 3 -2 6 -13 5 -11 0 -14 -3 -6 -6z"/>
<path d="M3403 3 c9 -2 25 -2 35 0 9 3 1 5 -18 5 -19 0 -27 -2 -17 -5z"/>
<path d="M3508 3 c12 -2 32 -2 45 0 12 2 2 4 -23 4 -25 0 -35 -2 -22 -4z"/>
<path d="M3668 3 c6 -2 18 -2 25 0 6 3 1 5 -13 5 -14 0 -19 -2 -12 -5z"/>
</g>
</svg>
